<svg version="1.1" id="Layer_1" xmlns="http://www.w3.org/2000/svg" x="0" y="0" viewBox="0 0 1383.9 489.3" xml:space="preserve" enable-background="new 0 0 1383.9 489.3"><style>.st2{fill:#7ddf96}.st3{fill:#515979}.st4{fill:#f89d81}.st5{fill:#6adaf7}.st6{fill:#f9cbcb}.st7{fill:#ffe8a0}</style><defs><filter id="Adobe_OpacityMaskFilter" filterUnits="userSpaceOnUse" x="6.5" y="3" width="1363.6" height="481.2"><feColorMatrix values="1 0 0 0 0 0 1 0 0 0 0 0 1 0 0 0 0 0 1 0"/></filter></defs><mask maskUnits="userSpaceOnUse" x="6.5" y="3" width="1363.6" height="481.2" id="mask0_2_"><path fill="#c4c4c4" filter="url(#Adobe_OpacityMaskFilter)" d="M2.7 3h1366.8v480.3H2.7z"/></mask><g mask="url(#mask0_2_)"><path class="st2" d="M246.4 187.2c-.3 0-.7-.1-.9-.4l-6.1-6.1c-.2-.2-.4-.6-.4-.9 0-.3.1-.7.4-.9l10.4-10.4c.2-.2.6-.4.9-.4.3 0 .7.1.9.4l6.1 6.1c.2.2.4.6.4.9 0 .3-.1.7-.4.9l-10.4 10.4c-.2.3-.6.4-.9.4z"/><path class="st3" d="M250.7 169.3l6.1 6.1-10.4 10.4-6.1-6.1 10.4-10.4zm0-2.6c-.7 0-1.4.3-1.8.8l-10.4 10.4c-.5.5-.8 1.1-.8 1.8s.3 1.4.8 1.8l6.1 6.1c.5.5 1.1.8 1.8.8s1.4-.3 1.8-.8l10.4-10.4c.5-.5.8-1.2.8-1.8 0-.7-.3-1.4-.8-1.8l-6.1-6.1c-.5-.5-1.1-.7-1.8-.8z"/><path class="st2" d="M46.5 44.6c-.2 0-.3-.1-.5-.2-.1-.1-.3-.2-.3-.4l-4.5-7.4c-.2-.3-.2-.6-.2-1 .1-.3.3-.6.6-.8l12.6-7.7c.1-.1.3-.1.5-.2h.5c.3.1.6.3.8.6l4.5 7.4c.1.1.1.3.2.5v.5c0 .2-.1.3-.2.5-.1.1-.2.3-.4.3l-12.6 7.7c-.1.1-.3.1-.5.2h-.5z"/><path class="st3" d="M54.9 28.2l4.5 7.4-12.6 7.7-4.5-7.4 12.6-7.7zm.6-2.5c-.3-.1-.7-.1-1 0-.3.1-.7.2-1 .4l-12.6 7.7c-.3.2-.5.4-.7.7-.2.3-.3.6-.4.9-.1.3-.1.7 0 1s.2.7.3 1l4.5 7.4c.2.3.4.5.7.7.3.2.6.3.9.4s.7.1 1 0c.3-.1.7-.2 1-.3l12.6-7.7c.3-.2.5-.4.7-.7.2-.3.3-.6.4-.9.1-.3.1-.7 0-1-.1-.3-.2-.7-.3-1l-4.5-7.4c-.2-.3-.4-.5-.7-.7-.3-.3-.6-.4-.9-.5z"/><path class="st2" d="M299.7 197.6c-.3 0-.7-.1-.9-.4l-6.1-6.1c-.2-.2-.4-.6-.4-.9 0-.3.1-.7.4-.9l10.4-10.4c.2-.2.6-.4.9-.4.3 0 .7.1.9.4l6.1 6.1c.2.2.4.6.4.9 0 .3-.1.7-.4.9l-10.4 10.4c-.2.3-.5.4-.9.4z"/><path class="st3" d="M304 179.8l6.1 6.1-10.4 10.4-6.1-6.1 10.4-10.4zm0-2.6c-.7 0-1.3.3-1.8.8l-10.4 10.4c-.5.5-.8 1.1-.8 1.8s.3 1.4.8 1.8l6.1 6.1c.5.5 1.1.8 1.8.8s1.4-.3 1.8-.8l10.4-10.4c.5-.5.8-1.2.8-1.8 0-.7-.3-1.4-.8-1.8l-6.1-6.1c-.5-.6-1.1-.8-1.8-.8z"/><path class="st2" d="M495.3 65.9c-.1.1-.3.1-.5.2h-.5l-8.4-2.1c-.2 0-.3-.1-.5-.2s-.3-.2-.3-.4c-.1-.1-.1-.3-.2-.5v-.5l3.5-14.3c0-.2.1-.3.2-.5.1-.1.2-.3.4-.3.3-.2.6-.2 1-.1l8.4 2.1c.3.1.6.3.8.6.2.3.2.6.1 1l-3.5 14.3c0 .2-.2.5-.5.7z"/><path class="st3" d="M489.8 48.4l8.4 2.1-3.5 14.3-8.4-2.1 3.5-14.3zm-1.4-2.2c-.3.2-.5.4-.7.7-.2.3-.3.6-.4.9l-3.5 14.3c-.1.3-.1.7 0 1 .1.3.2.7.3 1 .2.3.4.5.7.8.3.2.6.3.9.4l8.4 2.1c.3.1.7.1 1 0 .3-.1.7-.2 1-.3.3-.2.5-.4.7-.7.2-.3.4-.6.4-.9l3.5-14.3c.1-.3.1-.7 0-1-.1-.3-.2-.7-.3-1-.2-.3-.4-.5-.7-.8-.3-.2-.6-.3-.9-.4l-8.4-2.1c-.7-.2-1.4-.1-2 .3z"/><path class="st2" d="M39.7 408.1c-.1.3-.4.6-.7.7l-8.1 3.2c-.2.1-.3.1-.5.1s-.3 0-.5-.1-.3-.2-.4-.3c-.1-.1-.2-.3-.3-.4l-5.4-13.7c-.1-.2-.1-.3-.1-.5s0-.3.1-.5.2-.3.3-.4c.1-.1.3-.2.4-.3l8.1-3.2c.3-.1.7-.1 1 0 .3.1.6.4.7.7l5.4 13.7c.1.2.1.3.1.5s0 .4-.1.5z"/><path class="st3" d="M25 397.1l8.1-3.2 5.4 13.7-8.1 3.2-5.4-13.7zm-2.4-1.1c-.3.6-.3 1.3 0 2l5.4 13.7c.3.6.8 1.2 1.4 1.4.6.3 1.3.3 2 0l8.1-3.2c.6-.3 1.2-.8 1.4-1.4.3-.6.3-1.3 0-2l-5.4-13.7c-.1-.3-.3-.6-.5-.9-.2-.2-.5-.4-.8-.6-.3-.1-.7-.2-1-.2-.3 0-.7.1-1 .2l-8.1 3.2c-.7.4-1.2.9-1.5 1.5z"/><path class="st2" d="M168.3 236.2c-.3 0-.7-.1-.9-.4l-6.1-6.1c-.2-.2-.4-.6-.4-.9 0-.3.1-.7.4-.9l10.4-10.4c.2-.2.6-.4.9-.4.3 0 .7.1.9.4l6.1 6.1c.2.2.4.6.4.9 0 .3-.1.7-.4.9l-10.4 10.4c-.2.3-.5.4-.9.4z"/><path class="st3" d="M172.6 218.4l6.1 6.1-10.4 10.4-6.1-6.1 10.4-10.4zm0-2.6c-.7 0-1.4.3-1.8.8L160.4 227c-.5.5-.8 1.1-.8 1.8s.3 1.4.8 1.8l6.1 6.1c.5.5 1.1.8 1.8.8s1.4-.3 1.8-.8l10.4-10.4c.5-.5.8-1.1.8-1.8s-.3-1.4-.8-1.8l-6.1-6.1c-.4-.5-1.1-.8-1.8-.8z"/><path class="st4" d="M73.8 88.3c-.3 0-.7-.1-.9-.4l-6.1-6.1c-.2-.2-.4-.6-.4-.9 0-.3.1-.7.4-.9l10.4-10.4c.2-.2.6-.4.9-.4.3 0 .7.1.9.4l6.1 6.1c.2.2.4.6.4.9 0 .3-.1.7-.4.9L74.8 87.9c-.3.3-.6.4-1 .4z"/><path class="st3" d="M78.1 70.4l6.1 6.1L73.8 87l-6.1-6.1 10.4-10.5zm0-2.6c-.7 0-1.4.3-1.8.8L65.9 79c-.5.5-.8 1.1-.8 1.8s.3 1.4.8 1.8l6.1 6.1c.5.5 1.1.8 1.8.8s1.4-.3 1.8-.8L86 78.3c.5-.5.8-1.1.8-1.8s-.3-1.4-.8-1.8l-6.1-6.1c-.4-.5-1.1-.8-1.8-.8z"/><path class="st4" d="M370 134.7c-.3 0-.7-.1-.9-.4l-6.1-6.1c-.2-.2-.4-.6-.4-.9 0-.3.1-.7.4-.9l10.4-10.4c.2-.2.6-.4.9-.4.3 0 .7.1.9.4l6.1 6.1c.2.2.4.6.4.9 0 .3-.1.7-.4.9l-10.4 10.4c-.3.3-.6.4-.9.4z"/><path class="st3" d="M374.3 116.9l6.1 6.1-10.4 10.4-6.1-6.1 10.4-10.4zm0-2.6c-.7 0-1.3.3-1.8.8L362 125.4c-.5.5-.8 1.2-.8 1.8 0 .7.3 1.4.8 1.8l6.1 6.1c.5.5 1.1.8 1.8.8s1.4-.3 1.8-.8l10.4-10.4c.5-.5.8-1.1.8-1.8s-.3-1.4-.8-1.8L376 115c-.4-.5-1.1-.7-1.7-.7z"/><path class="st5" d="M111.1 280.5c-.3 0-.7-.1-.9-.4l-6.1-6.1c-.2-.2-.4-.6-.4-.9 0-.3.1-.7.4-.9l10.4-10.4c.2-.2.6-.4.9-.4.3 0 .7.1.9.4l6.1 6.1c.2.2.4.6.4.9 0 .3-.1.7-.4.9L112 280.1c-.2.2-.5.4-.9.4z"/><path class="st3" d="M115.4 262.6l6.1 6.1-10.4 10.4-6.1-6.1 10.4-10.4zm0-2.6c-.7 0-1.3.3-1.8.8l-10.4 10.4c-.5.5-.8 1.1-.8 1.8s.3 1.4.8 1.8l6.1 6.1c.5.5 1.1.8 1.8.8s1.4-.3 1.8-.8l10.4-10.4c.5-.5.8-1.2.8-1.8 0-.7-.3-1.4-.8-1.8l-6.1-6.1c-.4-.5-1.1-.8-1.8-.8z"/><path class="st4" d="M10.9 152.9c-.1-.2-.1-.3-.1-.5s.1-.3.1-.5l6.4-13.3c.1-.3.4-.6.7-.7.3-.1.7-.1 1 .1l7.8 3.7c.3.1.6.4.7.7.1.3.1.7-.1 1L21 156.7c-.1.2-.2.3-.3.4-.1.1-.3.2-.4.3-.2.1-.3.1-.5.1s-.3-.1-.5-.1l-7.8-3.7c-.2-.1-.3-.2-.4-.3-.1-.2-.2-.3-.2-.5z"/><path class="st3" d="M26.3 142.9l-6.4 13.3-7.8-3.7 6.4-13.3 7.8 3.7zm2.4-.9c-.2-.6-.7-1.2-1.3-1.5l-7.8-3.7c-.3-.1-.6-.2-1-.3-.3 0-.7 0-1 .1-.3.1-.6.3-.9.5-.3.2-.5.5-.6.8l-6.4 13.3c-.3.6-.3 1.3-.1 2 .2.7.7 1.2 1.3 1.5l7.8 3.7c.6.3 1.3.3 2 .1.3-.1.6-.3.9-.5.3-.2.5-.5.6-.8l6.4-13.3c.1-.3.2-.6.3-1 0-.2-.1-.5-.2-.9z"/><path class="st4" d="M90.2 388.5c-.1-.2-.1-.3-.1-.5s.1-.3.1-.5l6.4-13.3c.1-.3.4-.6.7-.7.3-.1.7-.1 1 .1l7.8 3.7c.3.1.6.4.7.7.1.3.1.7-.1 1l-6.4 13.3c-.1.2-.2.3-.3.4-.1.1-.3.2-.4.3-.2.1-.3.1-.5.1s-.3-.1-.5-.1l-7.8-3.7c-.2-.1-.3-.2-.4-.3 0-.2-.1-.4-.2-.5z"/><path class="st3" d="M105.6 378.5l-6.4 13.3-7.8-3.7 6.4-13.3 7.8 3.7zm2.5-.9c-.2-.6-.7-1.2-1.3-1.5l-7.8-3.7c-.3-.1-.6-.2-1-.3-.3 0-.7 0-1 .1-.3.1-.6.3-.9.5-.3.2-.5.5-.6.8l-6.4 13.3c-.3.6-.3 1.3-.1 2 .2.7.7 1.2 1.3 1.5l7.8 3.7c.6.3 1.3.3 2 .1.3-.1.6-.3.9-.5.3-.2.5-.5.6-.8l6.4-13.3c.1-.3.2-.6.2-1 0-.2 0-.6-.1-.9z"/><path class="st4" d="M313.6 107.8c-.3 0-.7-.1-.9-.4L302.2 97c-.2-.2-.4-.6-.4-.9 0-.3.1-.7.4-.9l6.1-6.1c.2-.2.6-.4.9-.4.3 0 .7.1.9.4l10.4 10.4c.2.2.4.6.4.9s-.1.7-.4.9l-6.1 6.1c-.2.3-.5.4-.8.4z"/><path class="st3" d="M309.3 90l10.4 10.4-6.1 6.1-10.4-10.4 6.1-6.1zm0-2.6c-.7 0-1.3.3-1.8.8l-6.1 6.1c-.5.5-.8 1.1-.8 1.8s.3 1.4.8 1.8l10.4 10.4c.5.5 1.1.8 1.8.8s1.3-.3 1.8-.8l6.1-6.1c.5-.5.8-1.2.8-1.8 0-.7-.3-1.4-.8-1.8l-10.4-10.4c-.5-.6-1.1-.8-1.8-.8z"/><path class="st4" d="M476.1 178.1c-.3 0-.7-.1-.9-.4l-10.4-10.4c-.2-.2-.4-.6-.4-.9s.1-.7.4-.9l6.1-6.1c.2-.2.6-.4.9-.4.3 0 .7.1.9.4l10.4 10.4c.2.2.4.6.4.9 0 .3-.1.7-.4.9l-6.1 6.1c-.2.3-.5.4-.9.4z"/><path class="st3" d="M471.8 160.2l10.4 10.4-6.1 6.1-10.4-10.4 6.1-6.1zm0-2.6c-.7 0-1.3.3-1.8.8l-6.1 6.1c-.5.5-.8 1.1-.8 1.8s.3 1.4.8 1.8l10.4 10.4c.5.5 1.1.8 1.8.8s1.4-.3 1.8-.8l6.2-6.1c.5-.5.8-1.1.8-1.8s-.3-1.4-.8-1.8l-10.4-10.4c-.5-.5-1.1-.8-1.9-.8z"/><path class="st4" d="M125.4 150.3c-.3 0-.7-.1-.9-.4l-10.4-10.4c-.2-.2-.4-.6-.4-.9 0-.3.1-.7.4-.9l6.1-6.1c.2-.2.6-.4.9-.4.3 0 .7.1.9.4l10.4 10.4c.2.2.4.6.4.9 0 .3-.1.7-.4.9l-6.1 6.1c-.2.3-.6.4-.9.4z"/><path class="st3" d="M121.1 132.5l10.4 10.4-6.1 6.1-10.4-10.4 6.1-6.1zm0-2.6c-.7 0-1.3.3-1.8.8l-6.1 6.1c-.5.5-.8 1.1-.8 1.8s.3 1.4.8 1.8l10.4 10.4c.5.5 1.1.8 1.8.8s1.4-.3 1.8-.8l6.2-6.1c.5-.5.8-1.2.8-1.8 0-.7-.3-1.4-.8-1.8L123 130.6c-.5-.5-1.2-.7-1.9-.7z"/><path class="st4" d="M501.3 118.2c-.3 0-.7-.1-.9-.4L490 107.4c-.2-.2-.4-.6-.4-.9 0-.3.1-.7.4-.9l6.1-6.1c.2-.2.6-.4.9-.4.3 0 .7.1.9.4l10.4 10.4c.2.2.4.6.4.9 0 .3-.1.7-.4.9l-6.1 6.1c-.1.1-.3.2-.4.3-.2.1-.3.1-.5.1z"/><path class="st3" d="M497 100.4l10.4 10.4-6.1 6.1-10.4-10.4 6.1-6.1zm0-2.6c-.7 0-1.4.3-1.8.8l-6.1 6.1c-.5.5-.8 1.1-.8 1.8s.3 1.4.8 1.8l10.4 10.4c.5.5 1.1.8 1.8.8s1.4-.3 1.8-.8l6.2-6.1c.5-.5.8-1.2.8-1.8 0-.7-.3-1.4-.8-1.8l-10.4-10.4c-.5-.5-1.2-.8-1.9-.8z"/><path class="st6" d="M182.5 54.3c0-.2.1-.3.1-.5.1-.2.2-.3.3-.4l10.9-9.9c.1-.1.3-.2.4-.3.2-.1.3-.1.5-.1s.3.1.5.1c.2.1.3.2.4.3l5.8 6.4c.2.3.3.6.3.9 0 .2-.1.3-.1.5-.1.2-.2.3-.3.4l-10.9 9.9c-.1.1-.3.2-.4.3-.2.1-.3.1-.5.1s-.3-.1-.5-.1c-.2-.1-.3-.2-.4-.3l-5.8-6.4c-.2-.2-.3-.5-.3-.9z"/><path class="st3" d="M200.6 51l-10.9 9.9-5.8-6.4 10.9-9.9 5.8 6.4zm2.6.1c0-.3 0-.7-.1-1-.1-.3-.3-.6-.5-.9l-5.8-6.4c-.2-.3-.5-.5-.8-.6-.3-.1-.6-.2-1-.2-.3 0-.7 0-1 .1-.3.1-.6.3-.9.5l-10.9 9.9c-.5.5-.8 1.1-.9 1.8 0 .7.2 1.4.7 1.9l5.8 6.4c.2.3.5.5.8.6.3.1.6.2 1 .2.3 0 .7 0 1-.1.3-.1.6-.3.9-.5l11-9.9c.3-.2.5-.5.6-.8 0-.3.1-.7.1-1z"/><path class="st6" d="M25.3 118.9c-.3.1-.7 0-1-.2L12 110.5c-.3-.2-.5-.5-.6-.8-.1-.3 0-.7.2-1l4.8-7.2c.2-.3.5-.5.8-.6h.5c.2 0 .3.1.5.2l12.3 8.2c.1.1.3.2.4.4.1.1.2.3.2.5v.5c0 .2-.1.3-.2.5l-4.8 7.2c-.1.1-.2.3-.4.4s-.2.1-.4.1z"/><path class="st3" d="M17.6 102.3l12.3 8.2-4.8 7.2-12.3-8.2 4.8-7.2zm-.5-2.6c-.3.1-.7.2-.9.4-.3.2-.5.4-.7.7l-4.8 7.2c-.2.3-.3.6-.4.9-.1.3-.1.7 0 1 .1.3.2.7.4.9.2.3.4.5.7.7l12.3 8.2c.3.2.6.3.9.4.3.1.7.1 1 0 .3-.1.7-.2.9-.4.3-.2.5-.4.7-.7l4.8-7.2c.2-.3.3-.6.4-.9.1-.3.1-.7 0-1-.1-.3-.2-.7-.4-.9-.2-.3-.4-.5-.7-.7L19 100.1c-.5-.4-1.2-.5-1.9-.4z"/><path class="st6" d="M586.7 129.5c-.2-.1-.3-.2-.4-.3-.1-.1-.2-.3-.3-.4l-5-13.9c-.1-.2-.1-.3-.1-.5s0-.3.1-.5.2-.3.3-.4c.1-.1.3-.2.4-.3l8.2-2.9c.3-.1.7-.1 1 0 .2.1.3.2.4.3.1.1.2.3.3.4l5 13.9c.1.2.1.3.1.5s-.1.3-.1.5c-.1.2-.2.3-.3.4s-.3.2-.4.3l-8.2 2.9c-.2.1-.3.1-.5.1-.1 0-.3 0-.5-.1z"/><path class="st3" d="M590.5 111.5l5 13.9-8.1 2.9-5-13.9 8.1-2.9zm1.1-2.3c-.6-.3-1.3-.3-2-.1l-8.2 2.9c-.6.2-1.2.7-1.5 1.3-.3.6-.3 1.3-.1 2l5 13.9c.2.6.7 1.2 1.3 1.5.6.3 1.3.3 2 .1l8.2-2.9c.6-.2 1.2-.7 1.5-1.3.3-.6.3-1.3.1-2l-5-13.9c-.1-.3-.3-.6-.5-.9-.2-.3-.5-.5-.8-.6z"/><path class="st6" d="M385.6 169.8c-.3.2-.6.3-1 .2l-14.6-2.3c-.2 0-.3-.1-.5-.2-.1-.1-.3-.2-.4-.3-.1-.1-.2-.3-.2-.5v-.5l1.3-8.6c0-.2.1-.3.2-.5.1-.1.2-.3.3-.4.3-.2.6-.3 1-.2l14.6 2.3c.3.1.6.2.8.5.2.3.3.6.2 1l-1.3 8.6c0 .2-.1.3-.2.5 0 .2-.1.3-.2.4z"/><path class="st3" d="M371.6 157.9l14.6 2.3-1.3 8.6-14.6-2.3 1.3-8.6zm-1.6-2.1c-.6.4-.9 1-1 1.7l-1.3 8.6c-.1.7.1 1.4.5 1.9.4.6 1 .9 1.7 1l14.6 2.3c.3.1.7 0 1 0 .3-.1.6-.2.9-.4.6-.4.9-1 1-1.7l1.3-8.6c.1-.3 0-.7 0-1-.1-.3-.2-.6-.4-.9-.4-.6-1-.9-1.7-1l-14.6-2.3c-.7-.2-1.4 0-2 .4z"/><path class="st5" d="M41.3 215c-.3 0-.7-.1-.9-.4L30 204.2c-.2-.2-.4-.6-.4-.9 0-.3.1-.7.4-.9l6.1-6.1c.2-.2.6-.4.9-.4.3 0 .7.1.9.4l10.4 10.4c.2.2.4.6.4.9 0 .3-.1.7-.4.9l-6.1 6.1c-.3.2-.6.4-.9.4z"/><path class="st3" d="M37 197.1l10.4 10.4-6.1 6.1-10.4-10.4 6.1-6.1zm0-2.6c-.7 0-1.4.3-1.8.8l-6.1 6.1c-.5.5-.8 1.1-.8 1.8s.3 1.4.8 1.8l10.4 10.4c.5.5 1.1.8 1.8.8s1.4-.3 1.8-.8l6.2-6.1c.5-.5.8-1.1.8-1.8s-.3-1.4-.8-1.8l-10.4-10.4c-.5-.5-1.2-.8-1.9-.8z"/><path class="st5" d="M1224.2 149.5c-.3.2-.6.3-.9.3l-14.7-.9c-.2 0-.3-.1-.5-.1-.2-.1-.3-.2-.4-.3s-.2-.3-.3-.4c0-.2-.1-.3-.1-.5l.5-8.7c0-.2.1-.3.1-.5.1-.2.2-.3.3-.4.1-.1.3-.2.4-.3.2-.1.3-.1.5-.1l14.7.9c.2 0 .3.1.5.1.2.1.3.2.4.3.1.1.2.3.3.4.1.2.1.3.1.5l-.5 8.7c0 .2-.1.3-.1.5 0 .3-.1.4-.3.5z"/><path class="st3" d="M1209.2 139l14.7.9-.5 8.7-14.7-.9.5-8.7zm-1.8-1.9c-.5.5-.8 1.1-.9 1.8l-.5 8.7c0 .7.2 1.4.7 1.9.5.5 1.1.8 1.8.9l14.7.9c.3 0 .7 0 1-.1.3-.1.6-.3.9-.5.3-.2.5-.5.6-.8.2-.3.2-.6.3-1l.5-8.7c0-.3 0-.7-.1-1-.1-.3-.3-.6-.5-.9-.2-.3-.5-.5-.8-.6-.3-.1-.6-.2-1-.3l-14.7-.9c-.8-.1-1.4.1-2 .6z"/><path class="st5" d="M1359.5 445.4c-.3.2-.6.3-.9.3l-14.7-.9c-.2 0-.3-.1-.5-.1-.2-.1-.3-.2-.4-.3-.1-.1-.2-.3-.3-.4-.1-.2-.1-.3-.1-.5l.5-8.7c0-.2 0-.3.1-.5s.2-.3.3-.4c.1-.1.3-.2.4-.3s.3-.1.5-.1l14.7.9c.2 0 .3.1.5.1.2.1.3.2.4.3.1.1.2.3.3.4.1.2.1.3.1.5l-.5 8.7c0 .2 0 .3-.1.5-.1.3-.2.4-.3.5z"/><path class="st3" d="M1344.5 434.9l14.7.9-.5 8.7-14.7-.9.5-8.7zm-1.8-2c-.5.5-.8 1.1-.9 1.8l-.5 8.7c0 .7.2 1.4.6 1.9.5.5 1.1.8 1.8.9l14.7.9c.3 0 .7 0 1-.1.3-.1.6-.3.9-.5.3-.2.5-.5.6-.8.2-.3.2-.6.3-1l.5-8.7c0-.3 0-.7-.1-1-.1-.3-.3-.6-.5-.9-.2-.3-.5-.5-.8-.6-.3-.1-.6-.2-1-.3l-14.7-.9c-.7-.1-1.4.2-1.9.6z"/><path class="st5" d="M53.8 380.3c-.3 0-.7-.1-.9-.4l-10.4-10.4c-.2-.2-.4-.6-.4-.9 0-.3.1-.7.4-.9l6.1-6.1c.2-.2.6-.4.9-.4.3 0 .7.1.9.4L60.8 372c.2.2.4.6.4.9 0 .3-.1.7-.4.9l-6.1 6.1c-.2.2-.5.4-.9.4z"/><path class="st3" d="M49.6 362.4L60 372.8l-6.1 6.1-10.4-10.4 6.1-6.1zm0-2.6c-.7 0-1.4.3-1.8.8l-6.1 6.1c-.5.5-.8 1.1-.8 1.8s.3 1.4.8 1.8L52 380.8c.5.5 1.1.8 1.8.8s1.4-.3 1.8-.8l6.2-6.1c.5-.5.8-1.1.8-1.8s-.3-1.4-.8-1.8l-10.4-10.4c-.5-.6-1.1-.9-1.8-.9z"/><path class="st5" d="M130.6 328.6c-.3 0-.7-.1-.9-.4l-10.4-10.4c-.2-.2-.4-.6-.4-.9 0-.3.1-.7.4-.9l6.1-6.1c.2-.2.6-.4.9-.4.3 0 .7.1.9.4l10.4 10.4c.2.2.4.6.4.9 0 .3-.1.7-.4.9l-6.1 6.1c-.2.3-.6.4-.9.4z"/><path class="st3" d="M126.3 310.8l10.4 10.4-6.1 6.1-10.4-10.4 6.1-6.1zm0-2.6c-.7 0-1.3.3-1.8.8l-6.1 6.1c-.5.5-.8 1.1-.8 1.8s.3 1.4.8 1.8l10.4 10.4c.5.5 1.1.8 1.8.8s1.4-.3 1.8-.8l6.2-6.1c.5-.5.8-1.1.8-1.8s-.3-1.4-.8-1.8L128.2 309c-.5-.5-1.2-.8-1.9-.8z"/><path class="st5" d="M379.9 87.4c-.3 0-.7-.1-.9-.4l-10.4-10.4c-.2-.2-.4-.6-.4-.9 0-.3.1-.7.4-.9l6.1-6.1c.2-.2.6-.4.9-.4.3 0 .7.1.9.4l10.4 10.4c.2.2.4.6.4.9 0 .3-.1.7-.4.9l-6.1 6.1c-.2.3-.6.4-.9.4z"/><path class="st3" d="M375.6 69.6L386 80l-6.1 6.1-10.4-10.4 6.1-6.1zm0-2.6c-.7 0-1.3.3-1.8.8l-6.1 6.1c-.5.5-.8 1.1-.8 1.8s.3 1.4.8 1.8L378.1 88c.5.5 1.1.8 1.8.8s1.3-.3 1.8-.8l6.1-6.1c.5-.5.8-1.1.8-1.8s-.3-1.4-.8-1.8l-10.4-10.4c-.4-.6-1.1-.9-1.8-.9z"/><path class="st5" d="M209.5 96.1c-.3 0-.7-.1-.9-.4l-10.4-10.4c-.2-.2-.4-.6-.4-.9 0-.3.1-.7.4-.9l6.1-6.1c.2-.2.6-.4.9-.4.3 0 .7.1.9.4l10.4 10.4c.2.2.4.6.4.9 0 .3-.1.7-.4.9l-6.1 6.1c-.2.3-.6.4-.9.4z"/><path class="st3" d="M205.2 78.2l10.4 10.4-6.1 6.1-10.4-10.4 6.1-6.1zm0-2.6c-.7 0-1.3.3-1.8.8l-6.1 6.1c-.5.5-.8 1.1-.8 1.8s.3 1.4.8 1.8l10.4 10.4c.5.5 1.1.8 1.8.8s1.4-.3 1.8-.8l6.2-6.1c.5-.5.8-1.1.8-1.8s-.3-1.4-.8-1.8l-10.4-10.4c-.5-.5-1.2-.7-1.9-.8z"/><path class="st7" d="M124.1 199.8c-.3 0-.7-.1-.9-.4l-6.1-6.1c-.2-.2-.4-.6-.4-.9 0-.3.1-.7.4-.9l10.4-10.4c.2-.2.6-.4.9-.4.3 0 .7.1.9.4l6.1 6.1c.2.2.4.6.4.9 0 .3-.1.7-.4.9L125 199.4c-.2.3-.5.4-.9.4z"/><path class="st3" d="M128.4 181.9l6.1 6.1-10.4 10.4-6.1-6.1 10.4-10.4zm0-2.6c-.7 0-1.4.3-1.8.8l-10.4 10.4c-.5.5-.8 1.1-.8 1.8s.3 1.4.8 1.8l6.1 6.1c.5.5 1.1.8 1.8.8s1.4-.3 1.8-.8l10.4-10.4c.5-.5.8-1.1.8-1.8s-.3-1.4-.8-1.8l-6.1-6.1c-.4-.5-1.1-.8-1.8-.8z"/><path class="st7" d="M14.9 318.4c-.2-.1-.3-.1-.4-.3-.1-.1-.2-.3-.3-.4l-6.3-13.3c-.1-.2-.1-.3-.1-.5s0-.3.1-.5.1-.3.3-.4c.1-.1.3-.2.4-.3l7.8-3.7c.2-.1.3-.1.5-.1s.3 0 .5.1c.3.1.6.4.7.7l6.3 13.4c.1.2.1.3.1.5s0 .3-.1.5-.1.3-.3.4c-.1.1-.3.2-.4.3l-7.8 3.7c-.2.1-.3.1-.5.1-.2-.1-.3-.2-.5-.2z"/><path class="st3" d="M16.9 300.1l6.3 13.3-7.8 3.7-6.3-13.3 7.8-3.7zm.9-2.4c-.3-.1-.7-.2-1-.2-.3 0-.7.1-1 .2L8 301.5c-.3.1-.6.4-.8.6-.2.3-.4.5-.5.9-.1.3-.2.7-.2 1 0 .3.1.7.2 1l6.3 13.3c.1.3.4.6.6.8s.5.4.9.5c.3.1.7.2 1 .2.3 0 .7-.1 1-.2l7.9-3.7c.3-.1.6-.4.8-.6.2-.3.4-.5.5-.9.1-.3.2-.7.2-1 0-.3-.1-.7-.2-1L19.3 299c-.1-.3-.4-.6-.6-.8-.3-.2-.6-.4-.9-.5z"/><path class="st7" d="M143.3 40.8c-.1.1-.2.3-.4.4-.1.1-.3.2-.5.2L128 44.6h-.5c-.2 0-.3-.1-.5-.2-.1-.1-.3-.2-.4-.4-.1-.1-.2-.3-.2-.5l-1.9-8.5v-.5c0-.2.1-.3.2-.5.1-.1.2-.3.4-.4.1-.1.3-.2.5-.2l14.4-3.2h.5c.2 0 .3.1.5.2.1.1.3.2.4.4.1.1.2.3.2.5l1.9 8.5v.5c0 .2-.1.4-.2.5z"/><path class="st3" d="M125.9 34.9l14.4-3.2 1.9 8.5-14.4 3.2-1.9-8.5zm-2.2-1.4c-.4.6-.5 1.3-.3 2l1.9 8.5c.1.3.2.7.4.9.2.3.4.5.7.7.3.2.6.3.9.4.3.1.7.1 1 0l14.4-3.2c.7-.1 1.3-.6 1.6-1.1.4-.6.5-1.3.3-2l-1.9-8.5c-.1-.3-.2-.6-.4-.9-.2-.3-.4-.5-.7-.7-.3-.2-.6-.3-.9-.4-.3-.1-.7-.1-1 0l-14.4 3.2c-.3.1-.7.2-.9.4-.2.1-.5.4-.7.7z"/><path class="st7" d="M223.8 221.9c-.3 0-.7-.1-.9-.4l-10.4-10.4c-.2-.2-.4-.6-.4-.9 0-.3.1-.7.4-.9l6.1-6.1c.2-.2.6-.4.9-.4.3 0 .7.1.9.4l10.4 10.4c.2.2.4.6.4.9 0 .3-.1.7-.4.9l-6.1 6.1c-.2.3-.6.4-.9.4z"/><path class="st3" d="M219.5 204.1l10.4 10.4-6.1 6.1-10.4-10.4 6.1-6.1zm0-2.7c-.7 0-1.3.3-1.8.8l-6.1 6.1c-.5.5-.8 1.1-.8 1.8s.3 1.4.8 1.8l10.4 10.4c.5.5 1.1.8 1.8.8s1.4-.3 1.8-.8l6.1-6.1c.5-.5.8-1.1.8-1.8s-.3-1.4-.8-1.8l-10.4-10.4c-.4-.5-1.1-.8-1.8-.8z"/><path class="st7" d="M255.2 103.3c-.3-.1-.6-.3-.8-.6l-6.9-13c-.1-.2-.1-.3-.1-.5s0-.3.1-.5.1-.3.2-.4c.1-.1.2-.2.4-.3l7.7-4.1c.2-.1.3-.1.5-.1s.3 0 .5.1.3.1.4.2c.1.1.2.2.3.4l6.9 13c.2.3.2.7.1 1-.1.3-.3.6-.6.8l-7.7 4.1c-.4-.1-.7 0-1-.1z"/><path class="st3" d="M256.3 84.9l6.9 13-7.7 4.1-6.9-13 7.7-4.1zm.7-2.5c-.7-.2-1.4-.1-2 .2l-7.7 4.1c-.3.2-.6.4-.8.6-.2.3-.4.6-.5.9-.1.3-.1.7-.1 1 0 .3.1.7.3 1l6.9 13c.3.6.9 1.1 1.5 1.3.7.2 1.4.1 2-.2l7.7-4.1c.6-.3 1.1-.9 1.3-1.5.2-.7.1-1.4-.2-2l-6.9-13c-.2-.6-.8-1.1-1.5-1.3z"/><path class="st7" d="M535.2 128.4c-.1-.2-.1-.3-.1-.5s0-.3.1-.5l6.1-13.4c.1-.2.2-.3.3-.4.1-.1.3-.2.4-.3.2-.1.3-.1.5-.1s.3 0 .5.1l7.9 3.6c.2.1.3.2.4.3.1.1.2.3.3.4.1.2.1.3.1.5s0 .3-.1.5l-6.1 13.4c-.1.2-.2.3-.3.4-.1.1-.3.2-.4.3-.2.1-.3.1-.5.1s-.3 0-.5-.1l-7.9-3.6c-.2-.1-.3-.2-.4-.3-.2-.1-.3-.3-.3-.4z"/><path class="st3" d="M550.4 118l-6.1 13.4-7.9-3.6 6.1-13.4 7.9 3.6zm2.4-.9c-.2-.6-.7-1.2-1.4-1.5l-7.9-3.6c-.3-.1-.6-.2-1-.2-.3 0-.7 0-1 .2-.3.1-.6.3-.9.5-.2.2-.4.5-.6.8l-6.1 13.4c-.3.6-.3 1.3-.1 2 .2.6.7 1.2 1.4 1.5l7.9 3.6c.6.3 1.3.3 2 .1.6-.2 1.2-.7 1.5-1.4l6.1-13.4c.3-.6.3-1.3.1-2z"/><path class="st7" d="M933 150c-.1.1-.3.2-.5.2h-.5l-14.5-2.7c-.3-.1-.6-.3-.8-.5-.2-.3-.3-.6-.2-1l1.6-8.5c0-.2.1-.3.2-.5.1-.1.2-.3.4-.4.1-.1.3-.2.5-.2h.5l14.5 2.7c.3.1.6.3.8.5.2.3.3.6.2 1l-1.6 8.5c0 .2-.1.3-.2.5l-.4.4z"/><path class="st3" d="M919.3 137.7l14.5 2.7-1.6 8.5-14.5-2.7 1.6-8.5zm-1.4-2.1c-.3.2-.5.4-.7.7-.2.3-.3.6-.4.9l-1.6 8.5c-.1.7 0 1.4.4 1.9.4.6 1 1 1.7 1.1l14.5 2.7c.3.1.7.1 1 0 .3-.1.7-.2.9-.4.3-.2.5-.4.7-.7.2-.3.3-.6.4-.9l1.6-8.5c.1-.3.1-.7 0-1-.1-.3-.2-.7-.4-.9-.2-.3-.4-.5-.7-.7-.3-.2-.6-.3-.9-.4l-14.5-2.7c-.8-.2-1.5 0-2 .4z"/><path class="st7" d="M57.3 452.3c-.2-.2-.4-.6-.4-.9v-14.7c0-.3.1-.7.4-.9.2-.2.6-.4.9-.4h8.7c.3 0 .7.1.9.4.2.2.4.6.4.9v14.7c0 .3-.1.7-.4.9-.2.2-.6.4-.9.4h-8.7c-.2 0-.3 0-.5-.1s-.3-.2-.4-.3z"/><path class="st3" d="M66.9 436.6v14.7h-8.7v-14.7h8.7zm1.8-1.8c-.5-.5-1.1-.8-1.8-.8h-8.7c-.7 0-1.4.3-1.8.8-.5.5-.8 1.1-.8 1.8v14.7c0 .7.3 1.4.8 1.8.5.5 1.1.8 1.8.8h8.7c.7 0 1.4-.3 1.8-.8.5-.5.8-1.2.8-1.8v-14.7c0-.7-.3-1.3-.8-1.8z"/><path class="st2" d="M58.9 305c-.2 0-.3-.1-.5-.2-.1-.1-.3-.2-.4-.3l-8.7-11.9c-.2-.3-.3-.6-.2-1 .1-.3.2-.6.5-.9l7-5.1c.3-.2.6-.3 1-.2.3.1.6.2.9.5l8.7 11.9c.1.1.2.3.2.5v.5c0 .2-.1.3-.2.5-.1.1-.2.3-.3.4l-7 5.1c-.3.2-.7.2-1 .2z"/><path class="st3" d="M57.3 286.7l8.7 11.9-7 5.1-8.7-11.9 7-5.1zm.4-2.6c-.7-.1-1.4.1-1.9.5l-7 5.1c-.3.2-.5.5-.7.7-.2.3-.3.6-.3 1-.1.3 0 .7 0 1 .1.3.2.6.4.9l8.7 11.9c.4.6 1 .9 1.7 1 .7.1 1.4-.1 1.9-.5l7-5.1c.3-.2.5-.5.7-.7.2-.3.3-.6.3-1 .1-.3 0-.7 0-1-.1-.3-.2-.6-.4-.9l-8.7-11.9c-.4-.5-1-.9-1.7-1z"/><path class="st2" d="M276.8 54.2c-.3.2-.6.3-.9.3l-14.7-1.1c-.2 0-.3-.1-.5-.1-.2-.1-.3-.2-.4-.3-.1-.1-.2-.3-.2-.4-.1-.2-.1-.3-.1-.5l.6-8.6c0-.3.2-.7.4-.9.3-.2.6-.3.9-.3l14.7 1.1c.3 0 .7.2.9.4.2.3.3.6.3.9l-.6 8.7c0 .3-.1.6-.4.8z"/><path class="st3" d="M261.9 43.5l14.7 1.1-.6 8.7-14.7-1.1.6-8.7zm-1.7-2c-.3.2-.5.5-.6.8-.2.3-.2.6-.3 1l-.6 8.6c0 .3 0 .7.1 1 .1.3.3.6.5.9.2.3.5.5.8.6.3.2.6.2 1 .3l14.7 1.1c.7.1 1.4-.2 1.9-.6.5-.5.8-1.1.9-1.8l.6-8.7c.1-.7-.2-1.4-.6-1.9-.4-.5-1.1-.8-1.8-.9l-14.7-1.1c-.3 0-.7 0-1 .1l-.9.6z"/><path class="st2" d="M420.1 146.5c-.2-.3-.3-.6-.3-.9l.9-14.7c0-.3.2-.7.4-.9.3-.2.6-.3.9-.3l8.7.5c.2 0 .3.1.5.1.2.1.3.2.4.3.1.1.2.3.3.4.1.2.1.3.1.5l-.9 14.7c0 .2-.1.3-.1.5-.1.2-.2.3-.3.4-.1.1-.3.2-.4.3-.2.1-.3.1-.5.1l-8.8-.5c-.3 0-.7-.2-.9-.5z"/><path class="st3" d="M430.6 131.5l-.9 14.7-8.7-.5 1-14.7 8.6.5zm2-1.7c-.5-.5-1.1-.8-1.8-.9l-8.7-.5c-.3 0-.7 0-1 .1-.3.1-.6.3-.9.5-.3.2-.5.5-.6.8-.1.3-.2.6-.3 1l-.9 14.7c0 .3 0 .7.1 1 .1.3.3.6.5.9.2.3.5.5.8.6.3.1.6.2 1 .3l8.7.5c.3 0 .7 0 1-.1.3-.1.6-.3.9-.5.3-.2.5-.5.6-.8.1-.3.2-.6.3-1l.9-14.7c.1-.7-.1-1.4-.6-1.9z"/><path class="st4" d="M60.1 170.1c-.3.1-.7 0-1-.2l-7.4-4.5c-.1-.1-.3-.2-.4-.3-.1-.1-.2-.3-.2-.5v-.5c0-.2.1-.3.2-.5L59 151c.1-.1.2-.3.3-.4.1-.1.3-.2.5-.2h.5c.2 0 .3.1.5.2l7.4 4.5c.3.2.5.5.6.8.1.3 0 .7-.2 1l-7.7 12.6c-.1.1-.2.3-.3.4-.2.1-.3.2-.5.2z"/><path class="st3" d="M60.1 151.7l7.4 4.5-7.7 12.6-7.4-4.5 7.7-12.6zm-.6-2.5c-.3.1-.6.2-.9.4-.3.2-.5.5-.7.7l-7.7 12.6c-.2.3-.3.6-.3 1-.1.3 0 .7 0 1 .1.3.2.6.4.9.2.3.5.5.7.7l7.4 4.5c.3.2.6.3 1 .4.3.1.7 0 1 0 .3-.1.6-.2.9-.4.3-.2.5-.5.7-.7l7.7-12.6c.2-.3.3-.6.3-1 .1-.3 0-.7 0-1-.1-.3-.2-.6-.4-.9-.2-.3-.5-.5-.7-.7l-7.4-4.5c-.6-.5-1.4-.6-2-.4z"/><path class="st4" d="M70.4 347.3c-.3 0-.7-.1-.9-.4l-6.1-6.1c-.2-.2-.4-.6-.4-.9 0-.3.1-.7.4-.9l10.4-10.4c.2-.2.6-.4.9-.4.3 0 .7.1.9.4l6.1 6.1c.2.2.4.6.4.9 0 .3-.1.7-.4.9l-10.4 10.4c-.3.3-.6.4-.9.4z"/><path class="st3" d="M74.7 329.4l6.1 6.1L70.4 346l-6.1-6.1 10.4-10.5zm0-2.6c-.7 0-1.4.3-1.8.8L62.4 338c-.5.5-.8 1.1-.8 1.8s.3 1.4.8 1.8l6.1 6.1c.5.5 1.1.8 1.8.8s1.4-.3 1.8-.8l10.4-10.4c.5-.5.8-1.1.8-1.8s-.3-1.4-.8-1.8l-6.1-6.1c-.4-.5-1.1-.8-1.7-.8z"/><path class="st7" d="M436.7 104.8c-.3 0-.7-.1-.9-.4l-6.1-6.1c-.2-.2-.4-.6-.4-.9 0-.3.1-.7.4-.9L440.1 86c.2-.2.6-.4.9-.4.3 0 .7.1.9.4l6.1 6.1c.2.2.4.6.4.9 0 .3-.1.7-.4.9l-10.4 10.4c-.2.4-.5.5-.9.5z"/><path class="st3" d="M441 86.9l6.1 6.1-10.4 10.4-6.1-6.1L441 86.9zm0-2.6c-.7 0-1.4.3-1.8.8l-10.4 10.4c-.5.5-.8 1.1-.8 1.8s.3 1.4.8 1.8l6.1 6.1c.5.5 1.1.8 1.8.8s1.4-.3 1.8-.8L449 94.9c.5-.5.8-1.1.8-1.8s-.3-1.4-.8-1.8l-6.1-6.1c-.5-.6-1.2-.9-1.9-.9z"/><path class="st7" d="M738.5 42.3c-.3 0-.7-.1-.9-.4l-6.1-6.1c-.2-.2-.4-.6-.4-.9 0-.3.1-.7.4-.9l10.4-10.4c.2-.2.6-.4.9-.4.3 0 .7.1.9.4l6.1 6.1c.2.2.4.6.4.9 0 .3-.1.7-.4.9l-10.4 10.4c-.1.1-.3.2-.4.3-.2.1-.3.1-.5.1z"/><path class="st3" d="M742.8 24.5l6.1 6.1L738.5 41l-6.1-6.1 10.4-10.4zm0-2.7c-.7 0-1.4.3-1.8.8L730.5 33c-.5.5-.8 1.1-.8 1.8s.3 1.4.8 1.8l6.1 6.1c.5.5 1.1.8 1.8.8s1.4-.3 1.8-.8l10.4-10.4c.5-.5.8-1.1.8-1.8s-.3-1.4-.8-1.8l-6.1-6.1c-.4-.5-1-.8-1.7-.8z"/><path class="st7" d="M516.3 162.3c-.2-.2-.4-.6-.4-.9l.2-8.7c0-.2 0-.3.1-.5s.2-.3.3-.4c.2-.2.6-.4.9-.4l14.7.3c.2 0 .3 0 .5.1s.3.2.4.3c.2.2.4.6.4.9l-.2 8.7c0 .3-.2.7-.4.9-.2.2-.6.4-.9.4l-14.7-.3c-.2 0-.3 0-.5-.1-.1-.1-.3-.2-.4-.3z"/><path class="st3" d="M532.2 153.1l-.2 8.7-14.7-.3.2-8.7 14.7.3zm1.9-1.8c-.5-.5-1.1-.8-1.8-.8l-14.7-.3c-.3 0-.7.1-1 .2-.3.1-.6.3-.9.5-.2.2-.4.5-.6.8s-.2.7-.2 1l-.2 8.7c0 .3.1.7.2 1 .1.3.3.6.5.9.2.2.5.4.8.6.3.1.7.2 1 .2l14.7.3c.7 0 1.4-.2 1.9-.7.5-.5.8-1.1.8-1.8l.2-8.7c0-.3-.1-.7-.2-1-.1-.4-.3-.7-.5-.9z"/><path class="st7" d="M163.6 298.3c-.3 0-.7-.1-.9-.4l-6.1-6.1c-.2-.2-.4-.6-.4-.9 0-.3.1-.7.4-.9l10.4-10.4c.2-.2.6-.4.9-.4.3 0 .7.1.9.4l6.1 6.1c.2.2.4.6.4.9 0 .3-.1.7-.4.9l-10.4 10.4c-.2.2-.6.4-.9.4z"/><path class="st3" d="M167.9 280.4l6.1 6.1-10.4 10.4-6.1-6.1 10.4-10.4zm0-2.6c-.7 0-1.4.3-1.8.8L155.6 289c-.5.5-.8 1.1-.8 1.8s.3 1.4.8 1.8l6.1 6.1c.5.5 1.1.8 1.8.8s1.4-.3 1.8-.8l10.4-10.4c.5-.5.8-1.1.8-1.8s-.3-1.4-.8-1.8l-6.1-6.1c-.4-.5-1-.8-1.7-.8z"/><path class="st7" d="M351.3 45.1c-.3-.1-.6-.4-.7-.7l-3.4-8c-.1-.3-.1-.7 0-1 .1-.3.4-.6.7-.7l13.6-5.7c.3-.1.7-.1 1 0 .2.1.3.2.4.3.1.1.2.3.3.4l3.4 8c.1.2.1.3.1.5s0 .3-.1.5-.2.3-.3.4c-.1.1-.3.2-.4.3l-13.6 5.7c-.2.1-.3.1-.5.1-.1 0-.3 0-.5-.1z"/><path class="st3" d="M362 30.2l3.4 8-13.6 5.7-3.4-8 13.6-5.7zm1-2.4c-.6-.3-1.4-.3-2 0l-13.6 5.7c-.3.1-.6.3-.8.6-.2.2-.4.5-.6.8-.1.3-.2.7-.2 1s.1.7.2 1l3.4 8c.1.3.3.6.6.8.2.2.5.4.8.6.3.1.7.2 1 .2.3 0 .7-.1 1-.2l13.6-5.7c.3-.1.6-.3.8-.6.2-.2.4-.5.6-.8.1-.3.2-.7.2-1 0-.3-.1-.7-.2-1l-3.3-8c-.3-.6-.8-1.1-1.5-1.4z"/><path class="st6" d="M255.5 143.2c-.3.2-.7.2-1 .1l-8.4-2.2c-.3-.1-.6-.3-.8-.6-.2-.3-.2-.7-.1-1l3.6-14.3c0-.2.1-.3.2-.5.1-.1.2-.3.4-.3.1-.1.3-.1.5-.2h.5l8.4 2.1c.2 0 .3.1.5.2.1.1.3.2.3.4.1.1.1.3.2.5v.5l-3.6 14.3c0 .2-.1.3-.2.5-.2.3-.4.4-.5.5z"/><path class="st3" d="M250.1 125.6l8.4 2.1-3.6 14.3-8.4-2.1 3.6-14.3zm-1.4-2.2c-.3.2-.6.4-.8.7-.2.3-.4.6-.4.9l-3.6 14.3c-.2.7-.1 1.4.3 2 .4.6.9 1 1.6 1.2l8.4 2.1c.7.2 1.4.1 2-.3.6-.4 1-.9 1.2-1.6l3.6-14.3c.1-.3.1-.7.1-1 0-.3-.2-.7-.3-1-.2-.3-.4-.6-.7-.8-.3-.2-.6-.4-.9-.4l-8.4-2.1c-.3-.1-.7-.1-1-.1-.5.1-.8.2-1.1.4z"/><path class="st6" d="M186.1 152.1c-.3 0-.7-.1-.9-.4l-6.1-6.1c-.2-.2-.4-.6-.4-.9 0-.3.1-.7.4-.9l10.4-10.4c.2-.2.6-.4.9-.4.3 0 .7.1.9.4l6.1 6.1c.2.2.4.6.4.9 0 .3-.1.7-.4.9L187 151.7c-.2.2-.5.4-.9.4z"/><path class="st3" d="M190.4 134.2l6.1 6.1-10.4 10.4-6.1-6.1 10.4-10.4zm0-2.6c-.7 0-1.4.3-1.8.8l-10.4 10.4c-.5.5-.8 1.1-.8 1.8s.3 1.4.8 1.8l6.1 6.1c.5.5 1.1.8 1.8.8s1.4-.3 1.8-.8l10.4-10.4c.5-.5.8-1.1.8-1.8s-.3-1.4-.8-1.8l-6.1-6.1c-.4-.5-1.1-.8-1.8-.8z"/><path class="st6" d="M144.1 93.3c-.2 0-.3.1-.5 0-.2 0-.3-.1-.5-.2l-7.5-4.3c-.3-.2-.5-.5-.6-.8-.1-.3 0-.7.1-1l7.3-12.8c.2-.3.5-.5.8-.6.3-.1.7 0 1 .1l7.5 4.3c.3.2.5.5.6.8.1.3 0 .7-.1 1l-7.3 12.8c-.2.4-.5.6-.8.7z"/><path class="st3" d="M143.5 74.9l7.5 4.3-7.3 12.8-7.5-4.3 7.3-12.8zm-.7-2.5c-.7.2-1.2.6-1.6 1.2l-7.3 12.8c-.3.6-.4 1.3-.2 2s.6 1.2 1.2 1.6l7.5 4.3c.3.2.6.3 1 .3s.7 0 1-.1c.3-.1.6-.2.9-.5.3-.2.5-.5.7-.8l7.3-12.8c.2-.3.3-.6.3-1 0-.3 0-.7-.1-1-.1-.3-.2-.6-.5-.9-.2-.3-.5-.5-.8-.7l-7.5-4.3c-.3-.2-.6-.3-1-.3-.2.1-.5.1-.9.2z"/><path class="st6" d="M45.3 268.4c-.2.1-.3.1-.5.1s-.3 0-.5-.1l-8.1-3.2c-.3-.1-.6-.4-.7-.7-.1-.3-.1-.7 0-1l5.5-13.7c.1-.2.2-.3.3-.4.1-.1.3-.2.4-.3.3-.1.7-.1 1 0l8.1 3.2c.3.1.6.4.7.7.1.3.1.7 0 1L46 267.7c-.1.2-.2.3-.3.4s-.3.2-.4.3z"/><path class="st3" d="M42.2 250.3l8.1 3.2-5.5 13.7-8.1-3.2 5.5-13.7zm-1.1-2.4c-.3.1-.6.3-.8.6-.2.2-.4.5-.6.9L34.3 263c-.3.6-.2 1.4 0 2 .3.6.8 1.1 1.4 1.4l8.1 3.2c.6.3 1.4.2 2 0 .6-.3 1.1-.8 1.4-1.4l5.5-13.7c.3-.6.2-1.4 0-2-.3-.6-.8-1.1-1.4-1.4l-8.1-3.2c-.3-.1-.7-.2-1-.2-.4 0-.7.1-1.1.2z"/><path class="st5" d="M190.2 181.7c-.1-.1-.3-.2-.4-.3-.1-.1-.2-.3-.2-.5l-2.1-8.4c-.1-.3 0-.7.2-1 .2-.3.5-.5.8-.6l14.3-3.6c.2 0 .3-.1.5 0 .2 0 .3.1.5.2s.3.2.4.3c.1.1.2.3.2.5l2.1 8.4c.1.3 0 .7-.1 1-.2.3-.5.5-.8.6l-14.3 3.6c-.2 0-.4.1-.5 0-.3 0-.4-.1-.6-.2z"/><path class="st3" d="M203 168.6l2.1 8.4-14.3 3.6-2.1-8.4 14.3-3.6zm1.4-2.3c-.6-.4-1.3-.5-2-.3l-14.3 3.6c-.7.2-1.2.6-1.6 1.2-.4.6-.5 1.3-.3 2l2.1 8.4c.1.3.2.6.4.9s.5.5.8.7c.3.2.6.3 1 .3.3 0 .7 0 1-.1l14.3-3.6c.7-.2 1.2-.6 1.6-1.2.4-.6.5-1.3.3-2l-2.1-8.4c-.1-.3-.2-.6-.4-.9-.3-.2-.6-.4-.8-.6z"/><path class="st4" d="M1325 41.9c-.3.2-.6.3-1 .2l-14.5-2.5c-.3-.1-.6-.3-.8-.5-.2-.3-.3-.6-.2-1l1.5-8.6c.1-.3.3-.6.5-.8.1-.1.3-.2.5-.2h.5L1326 31c.3.1.6.3.8.5.2.3.3.6.2 1l-1.5 8.5c0 .2-.1.3-.2.5 0 .2-.2.3-.3.4z"/><path class="st3" d="M1311.2 29.8l14.5 2.5-1.5 8.6-14.5-2.5 1.5-8.6zm-1.5-2.1c-.3.2-.5.4-.7.7-.2.3-.3.6-.4.9l-1.5 8.5c-.1.3-.1.7 0 1 .1.3.2.6.4.9.2.3.4.5.7.7.3.2.6.3.9.4l14.5 2.5c.7.1 1.4 0 1.9-.4.6-.4.9-1 1.1-1.7l1.5-8.6c.1-.7 0-1.4-.4-1.9-.2-.3-.4-.5-.7-.7-.3-.2-.6-.3-.9-.4l-14.5-2.5c-.6 0-1.3.2-1.9.6z"/><path class="st5" d="M1229.3 105.2c-.4 0-.7-.1-.9-.4L1218 94.4c-.2-.2-.4-.6-.4-.9 0-.3.1-.7.4-.9l6.1-6.1c.2-.2.6-.4.9-.4.3 0 .7.1.9.4l10.4 10.4c.2.2.4.6.4.9 0 .3-.1.7-.4.9l-6.1 6.1c-.3.3-.6.4-.9.4z"/><path class="st3" d="M1225 87.4l10.4 10.4-6.1 6.1-10.4-10.4 6.1-6.1zm0-2.6c-.7 0-1.3.3-1.8.8l-6.1 6.1c-.5.5-.8 1.1-.8 1.8s.3 1.4.8 1.8l10.4 10.4c.5.5 1.1.8 1.8.8s1.3-.3 1.8-.8l6.2-6.1c.5-.5.8-1.1.8-1.8s-.3-1.4-.8-1.8l-10.4-10.4c-.6-.6-1.2-.8-1.9-.8z"/><path class="st7" d="M1294.4 91.9c-.3-.1-.6-.3-.7-.7l-3.9-7.8c-.1-.3-.2-.7-.1-1 .1-.3.3-.6.6-.7l13.2-6.5c.3-.2.7-.2 1-.1.3.1.6.3.7.7l3.8 7.8c.2.3.2.7.1 1-.1.3-.4.6-.7.7l-13.2 6.5c-.1.2-.5.2-.8.1z"/><path class="st3" d="M1304.2 76.3l3.8 7.8-13.2 6.5-3.8-7.8 13.2-6.5zm.9-2.4c-.7-.2-1.4-.2-2 .1l-13.2 6.5c-.6.3-1.1.8-1.3 1.5-.2.7-.2 1.4.1 2l3.8 7.8c.3.6.8 1.1 1.5 1.3.6.2 1.4.2 2-.1l13.2-6.5c.6-.3 1.1-.8 1.3-1.5.2-.7.2-1.4-.1-2l-3.8-7.8c-.4-.6-.9-1.1-1.5-1.3z"/><path class="st4" d="M1257.2 64.3c-.3.2-.7.2-1 .1l-8.3-2.4c-.3-.1-.6-.3-.8-.6-.2-.3-.2-.7-.1-1l4.1-14.2c0-.2.1-.3.2-.5.1-.1.2-.2.4-.3.3-.2.7-.2 1-.1l8.3 2.4c.3.1.6.3.8.6.2.3.2.7.1 1l-4.1 14.2c0 .2-.1.3-.2.5-.2.1-.3.2-.4.3z"/><path class="st3" d="M1252.3 46.6l8.3 2.4-4.1 14.2-8.3-2.4 4.1-14.2zm-1.2-2.3c-.6.3-1.1.9-1.2 1.6l-4.1 14.2c-.2.7-.1 1.4.2 2 .2.3.4.6.7.8.3.2.6.4.9.5l8.3 2.4c.3.1.7.1 1 .1.3 0 .7-.1 1-.3.3-.2.6-.4.8-.7.2-.3.4-.6.5-.9l4.1-14.2c.2-.7.1-1.4-.2-2-.3-.6-.9-1.1-1.6-1.2l-8.3-2.4c-.8-.3-1.5-.2-2.1.1z"/><path class="st6" d="M1273.2 145.8c-.2.3-.5.5-.8.5l-8.5 1.5c-.3.1-.7 0-1-.2-.3-.2-.5-.5-.5-.8l-2.6-14.5v-.5c0-.2.1-.3.2-.5.1-.1.2-.3.4-.4.2-.1.3-.2.5-.2l8.5-1.5c.3-.1.7 0 1 .2.3.2.5.5.5.8l2.6 14.5c0 .5-.1.9-.3 1.1z"/><path class="st3" d="M1261 132.1l8.5-1.5 2.6 14.5-8.5 1.5-2.6-14.5zm-2.1-1.5c-.4.6-.6 1.3-.4 1.9l2.6 14.5c.1.3.2.7.4 1 .2.3.4.5.7.7.3.2.6.3.9.4.3.1.7.1 1 0l8.5-1.5c.3-.1.7-.2.9-.4.3-.2.5-.4.7-.7.2-.3.3-.6.4-.9.1-.3.1-.7 0-1l-2.6-14.5c-.1-.3-.2-.7-.4-1-.2-.3-.4-.5-.7-.7-.3-.2-.6-.3-.9-.4-.3-.1-.7-.1-1 0l-8.5 1.5c-.6.1-1.2.5-1.6 1.1z"/><path class="st5" d="M1294.6 173.3c-.1-.2-.1-.3-.1-.5s0-.3.1-.5l3.6-7.9c.1-.2.2-.3.3-.4.1-.1.3-.2.4-.3s.3-.1.5-.1.3 0 .5.1l13.4 6.2c.2.1.3.2.4.3.1.1.2.3.3.4.1.2.1.3.1.5s0 .3-.1.5l-3.6 7.9c-.1.2-.2.3-.3.4-.1.1-.3.2-.4.3-.2.1-.3.1-.5.1s-.3 0-.5-.1l-13.4-6.2c-.2-.1-.3-.2-.4-.3-.2-.1-.3-.2-.3-.4z"/><path class="st3" d="M1312.8 171.1l-3.6 7.9-13.4-6.2 3.6-7.9 13.4 6.2zm2.4-.9c-.1-.3-.3-.6-.5-.9-.2-.3-.5-.5-.8-.6l-13.4-6.2c-.3-.1-.7-.2-1-.2-.3 0-.7 0-1 .2-.3.1-.6.3-.9.5-.2.2-.5.5-.6.8l-3.6 7.9c-.1.3-.2.6-.2 1 0 .3 0 .7.2 1 .1.3.3.6.5.9.2.3.5.5.8.6l13.4 6.2c.3.1.6.2 1 .2.3 0 .7 0 1-.2.3-.1.6-.3.9-.5.3-.2.5-.5.6-.8l3.6-7.9c.1-.3.2-.6.2-1 0-.3 0-.6-.2-1z"/><path class="st5" d="M99.8 123.4c-.3 0-.7-.1-.9-.4l-6.1-6.1c-.2-.2-.4-.6-.4-.9 0-.3.1-.7.4-.9l10.4-10.4c.2-.2.6-.4.9-.4.3 0 .7.1.9.4l6.1 6.1c.2.2.4.6.4.9 0 .3-.1.7-.4.9L100.7 123c-.2.3-.5.4-.9.4z"/><path class="st3" d="M104.1 105.6l6.1 6.1-10.4 10.4-6.1-6.1 10.4-10.4zm0-2.6c-.7 0-1.4.3-1.8.8l-10.4 10.4c-.5.5-.8 1.2-.8 1.8 0 .7.3 1.4.8 1.8L98 124c.5.5 1.1.8 1.8.8s1.3-.3 1.8-.8l10.4-10.4c.5-.5.8-1.1.8-1.8s-.3-1.4-.8-1.8l-6.1-6.1c-.4-.7-1.1-.9-1.8-.9z"/><path class="st2" d="M963.5 35.8c-.3 0-.7-.1-.9-.4l-6.1-6.1c-.2-.2-.4-.6-.4-.9 0-.3.1-.7.4-.9L966.9 17c.2-.2.6-.4.9-.4.3 0 .7.1.9.4l6.1 6.1c.2.2.4.6.4.9 0 .3-.1.7-.4.9l-10.4 10.4c-.2.4-.5.5-.9.5z"/><path class="st3" d="M967.8 17.9l6.1 6.1-10.4 10.4-6.1-6.1 10.4-10.4zm0-2.6c-.7 0-1.3.3-1.8.8l-10.4 10.4c-.5.5-.8 1.1-.8 1.8s.3 1.4.8 1.8l6.1 6.1c.5.5 1.1.8 1.8.8s1.4-.3 1.8-.8l10.4-10.4c.5-.5.8-1.1.8-1.8s-.3-1.4-.8-1.8l-6.1-6.1c-.5-.5-1.1-.7-1.8-.8z"/><path class="st4" d="M986 77.7c-.3-.1-.6-.3-.8-.6l-4.1-7.7c-.2-.3-.2-.7-.1-1 .1-.3.3-.6.6-.8l13-6.9c.2-.1.3-.1.5-.1h.5c.3.1.6.3.8.6l4.1 7.7c.2.3.2.7.1 1-.1.3-.3.6-.6.8l-13 6.9c-.2.1-.3.1-.5.1-.2.1-.4.1-.5 0z"/><path class="st3" d="M995.3 61.9l4.1 7.7-13 6.9-4.1-7.7 13-6.9zm.7-2.5c-.7-.2-1.4-.1-2 .2l-13 6.9c-.3.2-.6.4-.8.6-.2.3-.4.6-.5.9-.1.3-.1.7-.1 1 0 .3.1.7.3 1l4.1 7.7c.2.3.4.6.6.8.3.2.6.4.9.5.3.1.7.1 1 .1.3 0 .7-.1 1-.3l13-6.9c.6-.3 1.1-.9 1.3-1.5.2-.7.1-1.4-.2-2l-4.1-7.7c-.2-.3-.4-.6-.6-.8-.2-.2-.5-.4-.9-.5z"/><path class="st4" d="M1304.9 460.9c-.1.1-.3.2-.5.2h-.5l-8.5-1.6c-.2 0-.3-.1-.5-.2s-.3-.2-.4-.4c-.1-.1-.2-.3-.2-.5v-.5l2.6-14.5c.1-.3.2-.6.5-.8.3-.2.6-.3 1-.2l8.5 1.6c.3.1.6.3.8.5.2.3.3.6.2 1l-2.6 14.5c.1.4-.1.7-.4.9z"/><path class="st3" d="M1298.3 443.8l8.5 1.6-2.6 14.5-8.5-1.6 2.6-14.5zm-1.5-2.2c-.3.2-.5.4-.7.7-.2.3-.3.6-.4.9l-2.6 14.5c-.1.3-.1.7 0 1 .1.3.2.7.4.9.2.3.4.5.7.7.3.2.6.3.9.4l8.5 1.6c.3.1.7.1 1 0 .3-.1.6-.2.9-.4.6-.4.9-1 1.1-1.7l2.6-14.5c.1-.3.1-.7 0-1-.1-.3-.2-.7-.4-.9-.2-.3-.4-.5-.7-.7-.3-.2-.6-.3-.9-.4l-8.5-1.6c-.3-.1-.7-.1-1 0-.3.2-.6.3-.9.5z"/><path class="st4" d="M888.2 121.8c-.3 0-.7-.2-.9-.4l-10.1-10.7c-.2-.3-.4-.6-.4-.9 0-.3.2-.7.4-.9l6.3-6c.3-.2.6-.4.9-.4.3 0 .7.2.9.4l10.1 10.7c.2.3.4.6.4.9 0 .3-.2.7-.4.9l-6.3 6c-.1.1-.3.2-.4.3-.2 0-.3.1-.5.1z"/><path class="st3" d="M884.4 103.8l10.1 10.7-6.3 6-10.1-10.7 6.3-6zm.1-2.6c-.3 0-.7 0-1 .2-.3.1-.6.3-.9.5l-6.3 6c-.5.5-.8 1.1-.8 1.8s.2 1.4.7 1.9l10.1 10.7c.5.5 1.1.8 1.8.8s1.4-.2 1.9-.7l6.3-6c.5-.5.8-1.1.8-1.8s-.2-1.4-.7-1.9L886.3 102c-.2-.2-.5-.4-.8-.6-.3-.1-.7-.2-1-.2z"/><path class="st4" d="M1044.5 138.7c-.1.1-.3.1-.5.1s-.3 0-.5-.1l-14.1-4.3c-.3-.1-.6-.3-.8-.6-.2-.3-.2-.7-.1-1l2.5-8.3c.1-.3.3-.6.6-.8.3-.2.7-.2 1-.1l14.1 4.3c.3.1.6.3.8.6.2.3.2.7.1 1l-2.5 8.3c-.1.4-.3.7-.6.9z"/><path class="st3" d="M1032.3 124.9l14.1 4.3-2.5 8.3-14.1-4.3 2.5-8.3zm-1.2-2.3c-.6.3-1.1.9-1.3 1.5l-2.5 8.3c-.2.7-.1 1.4.2 2 .2.3.4.6.6.8.3.2.6.4.9.5l14.1 4.3c.3.1.7.1 1 .1.3 0 .7-.1 1-.3.3-.2.6-.4.8-.6.2-.3.4-.6.5-.9l2.5-8.3c.1-.3.1-.7.1-1 0-.3-.1-.7-.3-1-.3-.6-.9-1.1-1.5-1.3l-14.1-4.3c-.7-.2-1.4-.1-2 .2z"/><path class="st6" d="M968.5 113.2c-.3 0-.7-.2-.9-.5l-9.3-11.5c-.1-.1-.2-.3-.2-.4 0-.2-.1-.3 0-.5 0-.2.1-.3.2-.5.1-.1.2-.3.3-.4l6.7-5.5c.1-.1.3-.2.4-.2.2 0 .3-.1.5 0 .3 0 .7.2.9.5l9.3 11.5c.1.1.2.3.2.4 0 .2.1.3 0 .5 0 .2-.1.3-.2.5-.1.1-.2.3-.3.4l-6.7 5.4c-.2.2-.5.3-.9.3z"/><path class="st3" d="M966.1 95l9.3 11.5-6.7 5.4-9.3-11.5 6.7-5.4zm.3-2.6c-.3 0-.7 0-1 .1-.3.1-.6.3-.9.5l-6.7 5.4c-.3.2-.5.5-.7.8-.2.3-.3.6-.3 1 0 .3 0 .7.1 1 .1.3.3.6.5.9l9.3 11.5c.4.5 1.1.9 1.7 1 .7.1 1.4-.1 1.9-.6l6.7-5.5c.5-.4.9-1.1 1-1.7.1-.7-.1-1.4-.6-1.9l-9.3-11.5c-.4-.6-1-.9-1.7-1z"/><path class="st6" d="M825.4 50.1c-.3.1-.7.1-1 0L811 44c-.2-.1-.3-.2-.4-.3-.1-.1-.2-.3-.3-.4-.1-.2-.1-.3-.1-.5s0-.3.1-.5l3.6-7.9c.1-.3.4-.6.7-.7.3-.1.7-.1 1 0l13.4 6.1c.2.1.3.2.4.3.1.1.2.3.3.4.1.2.1.3.1.5s0 .3-.1.5l-3.6 7.9c-.1.2-.2.3-.3.4-.1.1-.3.2-.4.3z"/><path class="st3" d="M815.1 34.8l13.4 6.1-3.6 7.9-13.4-6.1 3.6-7.9zm-1-2.4c-.6.2-1.2.7-1.5 1.4l-3.6 7.9c-.1.3-.2.7-.2 1 0 .3 0 .7.2 1 .1.3.3.6.5.9.2.3.5.5.8.6l13.4 6.1c.3.1.6.2 1 .2.3 0 .7 0 1-.2.3-.1.6-.3.9-.5.2-.2.4-.5.6-.8l3.6-7.9c.1-.3.2-.6.2-1 0-.3 0-.7-.2-1-.2-.6-.7-1.2-1.4-1.5L816 32.5c-.3-.1-.6-.2-1-.2-.2-.1-.5 0-.9.1z"/><path class="st4" d="M977 160.3c-.2.1-.3.1-.5.1s-.3 0-.5-.1l-8.2-2.9c-.2-.1-.3-.1-.4-.3-.1-.1-.2-.3-.3-.4-.1-.2-.1-.3-.1-.5s0-.3.1-.5l4.9-13.9c.1-.2.1-.3.3-.4s.3-.2.4-.3c.3-.1.7-.2 1-.1l8.2 2.9c.3.1.6.4.7.7.2.3.2.7.1 1l-4.8 13.9c-.3.4-.6.6-.9.8z"/><path class="st3" d="M973.1 142.3l8.2 2.9-4.8 13.9-8.2-2.8 4.8-14zM972 140c-.6.3-1.1.8-1.3 1.5l-4.9 13.9c-.2.7-.2 1.4.1 2 .3.6.8 1.1 1.5 1.3l8.2 2.9c.3.1.7.2 1 .1.3 0 .7-.1 1-.3.3-.1.6-.4.8-.6.2-.3.4-.6.5-.9l4.8-13.9c.1-.3.2-.7.1-1 0-.3-.1-.7-.3-1-.1-.3-.4-.6-.6-.8s-.6-.4-.9-.5l-8.2-2.8c-.3-.1-.7-.2-1-.1-.2 0-.5 0-.8.2z"/><path class="st5" d="M884.8 72c-.1.1-.3.2-.4.3-.2.1-.3.1-.5.1l-8.7-.3c-.3 0-.7-.2-.9-.4-.2-.3-.4-.6-.4-.9l.4-14.7c0-.2 0-.3.1-.5s.2-.3.3-.4c.1-.1.3-.2.4-.3.2-.1.3-.1.5-.1l8.7.2c.2 0 .3 0 .5.1s.3.2.4.3c.1.1.2.3.3.4.1.2.1.3.1.5l-.4 14.7c0 .4-.1.7-.4 1z"/><path class="st3" d="M875.7 56l8.7.2-.5 14.8-8.7-.3.5-14.7zm-1.8-1.9c-.2.2-.4.5-.6.8-.1.3-.2.6-.2 1l-.4 14.7c0 .7.2 1.4.7 1.9.5.5 1.1.8 1.8.8l8.7.3c.3 0 .7 0 1-.2.3-.1.6-.3.9-.5.2-.2.4-.5.6-.8.1-.3.2-.6.2-1l.4-14.7c0-.3 0-.7-.2-1-.1-.3-.3-.6-.5-.9-.2-.2-.5-.4-.8-.6-.3-.1-.6-.2-1-.2l-8.7-.2c-.3 0-.7 0-1 .2-.4 0-.6.2-.9.4z"/><path class="st5" d="M1011.6 112.6c-.2-.1-.3-.1-.4-.3-.1-.1-.2-.3-.3-.4l-3.7-7.9c-.1-.2-.1-.3-.1-.5s0-.3.1-.5.2-.3.3-.4c.1-.1.3-.2.4-.3l13.4-6.3c.2-.1.3-.1.5-.1s.3 0 .5.1.3.1.4.3c.1.1.2.3.3.4l3.7 7.9c.1.2.1.3.1.5s0 .3-.1.5-.1.3-.3.4c-.1.1-.3.2-.4.3l-13.3 6.3c-.2.1-.3.1-.5.1-.3 0-.5 0-.6-.1z"/><path class="st3" d="M1021.7 97.3l3.7 7.9-13.4 6.3-3.7-7.9 13.4-6.3zm.8-2.5c-.3-.1-.7-.2-1-.2-.3 0-.7.1-1 .2l-13.3 6.3c-.3.1-.6.3-.8.6-.2.3-.4.5-.5.9-.1.3-.2.7-.2 1 0 .3.1.7.2 1l3.7 7.9c.2.3.4.6.6.8.2.2.6.4.9.5.3.1.7.2 1 .2.3 0 .7-.1 1-.2l13.3-6.3c.3-.1.6-.4.8-.6.2-.3.4-.5.5-.9s.2-.7.2-1c0-.3-.1-.7-.2-1l-3.7-7.9c-.1-.3-.3-.6-.6-.8-.2-.2-.5-.4-.9-.5z"/><path class="st2" d="M731.1 185.1c-.2.2-.6.4-.9.4l-8.7-.1c-.3 0-.7-.1-.9-.4-.2-.2-.4-.6-.4-.9l.1-14.8c0-.2 0-.3.1-.5s.2-.3.3-.4c.2-.2.6-.4.9-.4l8.7.1c.3 0 .7.1.9.4.2.2.4.6.4.9l-.1 14.7c0 .4-.2.8-.4 1z"/><path class="st3" d="M721.6 169.4l8.7.1-.1 14.7-8.7-.1.1-14.7zm-1.8-1.9c-.2.2-.4.5-.6.8-.1.3-.2.7-.2 1l-.1 14.8c0 .7.3 1.4.8 1.8.5.5 1.1.8 1.8.8l8.7.1c.7 0 1.3-.3 1.8-.8s.8-1.1.8-1.8l.1-14.7c0-.7-.3-1.4-.8-1.8-.5-.5-1.1-.8-1.8-.8l-8.7-.1c-.7-.1-1.3.2-1.8.7z"/><path class="st4" d="M636.4 80.1c-.2.3-.5.4-.9.4l-8.6.7c-.3 0-.7-.1-.9-.3-.3-.2-.4-.5-.4-.9l-1.1-14.7c0-.3.1-.7.3-.9.2-.3.5-.4.9-.4l8.6-.7c.3 0 .7.1.9.3.3.2.4.5.4.9l1.1 14.7c0 .3-.1.6-.3.9z"/><path class="st3" d="M625.6 65.2l8.6-.7 1.1 14.7-8.6.7-1.1-14.7zm-1.9-1.7c-.2.3-.4.6-.5.9-.1.3-.1.7-.1 1l1.1 14.7c.1.7.4 1.3.9 1.8.5.4 1.2.7 1.9.6l8.6-.7c.7-.1 1.3-.4 1.8-.9.4-.5.7-1.2.6-1.9l-1.1-14.7c-.1-.7-.4-1.3-.9-1.8-.5-.4-1.2-.7-1.9-.6l-8.6.7c-.3 0-.7.1-1 .3-.3.1-.6.3-.8.6z"/><path class="st4" d="M677.8 144.1c-.2 0-.3-.1-.5-.2-.1-.1-.3-.2-.4-.4L669 131c-.2-.3-.2-.6-.2-1 .1-.3.3-.6.6-.8l7.3-4.7c.1-.1.3-.2.5-.2h.5c.2 0 .3.1.5.2.1.1.3.2.4.4l7.9 12.5c.1.1.2.3.2.5v.5c0 .2-.1.3-.2.5-.1.1-.2.3-.4.4l-7.3 4.7c-.3.1-.7.1-1 .1z"/><path class="st3" d="M677.5 125.7l7.9 12.5-7.3 4.7-7.9-12.5 7.3-4.7zm.6-2.5c-.7-.1-1.4 0-2 .3l-7.3 4.7c-.3.2-.5.4-.7.7-.2.3-.3.6-.4.9-.1.3-.1.7 0 1 .1.3.2.7.4.9l7.9 12.5c.4.6 1 1 1.6 1.1.7.1 1.4 0 2-.3l7.3-4.7c.6-.4 1-1 1.1-1.6.1-.7 0-1.4-.3-2l-7.9-12.5c-.2-.3-.4-.5-.7-.7-.4-.1-.7-.3-1-.3z"/><path class="st4" d="M1324.6 411.9c-.2-.1-.3-.2-.4-.3-.1-.1-.2-.3-.3-.4l-4.9-13.9c-.1-.3-.1-.7.1-1 .2-.3.4-.5.7-.7l8.2-2.9c.3-.1.7-.1 1 .1.2.1.3.2.4.3s.2.3.3.4l4.9 13.9c.1.3.1.7-.1 1-.2.3-.4.5-.7.7l-8.2 2.9c-.3.1-.7.1-1-.1z"/><path class="st3" d="M1328.5 393.9l4.9 13.9-8.2 2.9-4.9-13.9 8.2-2.9zm1.1-2.3c-.3-.1-.6-.2-1-.3-.3 0-.7 0-1 .1l-8.2 2.9c-.7.2-1.2.7-1.5 1.3-.3.6-.3 1.3-.1 2l4.9 13.9c.1.3.3.6.5.9.2.3.5.5.8.6.3.1.6.2 1 .3.3 0 .7 0 1-.1l8.2-2.9c.7-.2 1.2-.7 1.5-1.3.3-.6.3-1.3.1-2l-4.9-13.9c-.2-.7-.7-1.2-1.3-1.5z"/><path class="st7" d="M656.1 184.2c-.3 0-.7-.1-.9-.4l-6.1-6.1c-.2-.2-.4-.6-.4-.9 0-.3.1-.7.4-.9l10.4-10.4c.2-.2.6-.4.9-.4.3 0 .7.1.9.4l6.1 6.1c.2.2.4.6.4.9 0 .3-.1.7-.4.9L657 183.8c-.2.2-.5.4-.9.4z"/><path class="st3" d="M660.4 166.3l6.1 6.1-10.4 10.4-6.1-6.1 10.4-10.4zm0-2.6c-.7 0-1.4.3-1.8.8l-10.4 10.4c-.5.5-.8 1.1-.8 1.8s.3 1.4.8 1.8l6.1 6.1c.5.5 1.1.8 1.8.8s1.4-.3 1.8-.8l10.4-10.4c.5-.5.8-1.1.8-1.8s-.3-1.4-.8-1.8l-6.1-6.1c-.4-.5-1.1-.8-1.8-.8z"/><path class="st7" d="M1168.2 134.3c-.3-.2-.5-.5-.6-.8l-2-8.5v-.5c0-.2.1-.3.2-.5.1-.1.2-.3.4-.4.1-.1.3-.2.5-.2l14.4-3.3h.5c.2 0 .3.1.5.2.3.2.5.5.6.8l1.9 8.5c.1.3 0 .7-.2 1-.2.3-.5.5-.8.6l-14.4 3.3c-.4 0-.7 0-1-.2z"/><path class="st3" d="M1181.3 121.4l2 8.5-14.4 3.3-1.9-8.5 14.3-3.3zm1.4-2.2c-.6-.4-1.3-.5-2-.3l-14.4 3.3c-.3.1-.6.2-.9.4-.3.2-.5.4-.7.7-.2.3-.3.6-.4 1-.1.3 0 .7 0 1l1.9 8.5c.2.7.6 1.3 1.2 1.6.6.4 1.3.5 2 .3l14.4-3.3c.3-.1.6-.2.9-.4.3-.2.5-.4.7-.7.2-.3.3-.6.4-1 .1-.3 0-.7 0-1l-1.9-8.5c-.2-.6-.6-1.2-1.2-1.6z"/><path class="st7" d="M555 56.8c-.3-.1-.6-.3-.8-.7L547.6 43c-.2-.3-.2-.7-.1-1 .1-.3.3-.6.6-.7l7.8-3.9c.2-.1.3-.1.5-.1s.3 0 .5.1c.3.1.6.3.7.7l6.6 13.2c.2.3.2.7.1 1-.1.3-.3.6-.6.7l-7.8 3.9c-.2.1-.3.1-.5.1-.1-.1-.3-.1-.4-.2z"/><path class="st3" d="M556.5 38.5l6.6 13.2-7.7 3.9-6.6-13.2 7.7-3.9zm.8-2.5c-.3-.1-.7-.1-1-.1-.3 0-.7.1-1 .3l-7.7 3.9c-.6.3-1.1.8-1.3 1.5-.2.6-.2 1.4.1 2l6.6 13.2c.2.3.4.6.6.8.3.2.6.4.9.5.3.1.7.2 1 .1.3 0 .7-.1 1-.3l7.7-3.9c.6-.3 1.1-.8 1.3-1.5.2-.6.2-1.4-.1-2l-6.6-13.2c-.2-.3-.4-.6-.6-.8-.2-.2-.5-.3-.9-.5z"/><path class="st4" d="M616.2 163.4c-.3.1-.7.1-1 0l-8-3.3c-.2-.1-.3-.2-.4-.3-.1-.1-.2-.3-.3-.4-.1-.2-.1-.3-.1-.5s0-.3.1-.5l5.6-13.7c.1-.3.4-.6.7-.7.2-.1.3-.1.5-.1s.3 0 .5.1l8 3.3c.3.1.6.4.7.7.1.3.1.7 0 1l-5.5 13.7c-.1.2-.2.3-.3.4-.2.2-.3.3-.5.3z"/><path class="st3" d="M613.2 145.3l8 3.3-5.6 13.7-8-3.3 5.6-13.7zm-1-2.4c-.6.3-1.1.8-1.4 1.4l-5.6 13.7c-.1.3-.2.7-.2 1 0 .3.1.7.2 1 .1.3.3.6.6.8.2.2.5.4.8.6l8 3.3c.3.1.7.2 1 .2.3 0 .7-.1 1-.2.3-.1.6-.3.8-.6.2-.2.4-.5.6-.8l5.5-13.7c.3-.6.3-1.4 0-2s-.8-1.1-1.4-1.4l-8.1-3.3c-.3-.1-.7-.2-1-.2-.1 0-.5.1-.8.2z"/><path class="st6" d="M719.6 142.6c-.2.3-.5.4-.9.4l-8.6.6c-.2 0-.3 0-.5-.1s-.3-.1-.4-.3c-.1-.1-.2-.2-.3-.4-.1-.2-.1-.3-.1-.5l-1-14.7c0-.3.1-.7.3-.9.2-.3.5-.4.9-.4l8.7-.6c.3 0 .7.1.9.3.3.2.4.5.4.9l1 14.7c0 .2 0 .3-.1.5s-.2.4-.3.5z"/><path class="st3" d="M709 127.6l8.7-.6 1 14.7-8.7.6-1-14.7zm-2-1.7c-.2.3-.4.6-.5.9-.1.3-.2.7-.1 1l1 14.7c0 .7.4 1.3.9 1.8s1.2.7 1.9.6l8.6-.6c.3 0 .7-.1 1-.3.3-.1.6-.4.8-.6.2-.3.4-.6.5-.9.1-.3.2-.7.1-1l-1-14.7c0-.3-.1-.7-.3-1-.2-.3-.4-.6-.6-.8-.3-.2-.6-.4-.9-.5-.3-.1-.7-.2-1-.1l-8.7.6c-.6 0-1.3.4-1.7.9z"/><path class="st6" d="M1076.4 115.8c-.2 0-.3-.1-.5-.2-.1-.1-.3-.2-.4-.4l-4.7-7.3c-.1-.1-.2-.3-.2-.5v-.5c0-.2.1-.3.2-.5.1-.1.2-.3.4-.4l12.4-7.9c.3-.2.6-.2 1-.2.3.1.6.3.8.6l4.7 7.3c.2.3.2.6.2 1s-.3.6-.6.8l-12.4 7.9c-.1.1-.3.2-.5.2-.1.2-.2.1-.4.1z"/><path class="st3" d="M1084.4 99.3l4.7 7.3-12.4 7.9-4.7-7.3 12.4-7.9zm.6-2.6c-.7-.1-1.4 0-2 .3l-12.4 7.9c-.6.4-1 1-1.1 1.6-.1.7 0 1.4.4 2l4.7 7.3c.2.3.4.5.7.7.3.2.6.3.9.4.3.1.7.1 1 0 .3-.1.7-.2.9-.4l12.4-7.9c.3-.2.5-.4.7-.7.2-.3.3-.6.4-.9.1-.3.1-.7 0-1-.1-.3-.2-.7-.4-.9l-4.7-7.3c-.2-.3-.4-.5-.7-.7-.2-.1-.5-.3-.8-.4z"/><path class="st6" d="M672.6 49.4c-.2-.3-.2-.7-.1-1l2.7-8.2c.1-.3.3-.6.7-.8.3-.2.7-.2 1-.1l14 4.7c.3.1.6.3.8.7.2.3.2.7.1 1l-2.7 8.2c-.1.3-.3.6-.7.8-.3.2-.7.2-1 .1l-14-4.7c-.2-.1-.3-.1-.4-.3-.2-.1-.3-.2-.4-.4z"/><path class="st3" d="M690.5 45.3l-2.7 8.2-14-4.7 2.7-8.2 14 4.7zm2.3-1.2c-.3-.6-.9-1.1-1.5-1.3l-14-4.7c-.3-.1-.7-.2-1-.1-.3 0-.7.1-1 .3-.3.2-.6.4-.8.6-.2.3-.4.6-.5.9l-2.7 8.2c-.2.7-.2 1.4.1 2 .3.6.8 1.1 1.5 1.3l14 4.7c.3.1.7.2 1 .1.3 0 .7-.1 1-.3s.6-.4.8-.6c.2-.3.4-.6.5-.9l2.7-8.2c.3-.7.2-1.4-.1-2z"/><path class="st5" d="M652 108.3c-.3-.2-.4-.5-.5-.9l-1-8.6v-.5c0-.2.1-.3.2-.5.1-.1.2-.2.4-.3.1-.1.3-.1.5-.2l14.6-1.7c.3 0 .7.1 1 .3.3.2.4.5.5.9l1 8.6v.5c0 .2-.1.3-.2.5-.1.1-.2.2-.4.3-.1.1-.3.1-.5.2l-14.6 1.7h-.5c-.3-.1-.4-.1-.5-.3z"/><path class="st3" d="M666.4 97l1 8.6-14.6 1.7-1-8.6 14.6-1.7zm1.6-2.1c-.3-.2-.6-.4-.9-.5-.3-.1-.7-.1-1-.1L651.5 96c-.7.1-1.3.4-1.7 1-.4.5-.6 1.2-.5 1.9l1 8.6c0 .3.1.7.3 1 .2.3.4.6.7.8.3.2.6.4.9.5.3.1.7.1 1 .1l14.6-1.7c.3 0 .7-.1 1-.3.3-.2.6-.4.8-.7.2-.3.4-.6.5-.9.1-.3.1-.7.1-1l-1-8.6c-.3-.7-.7-1.4-1.2-1.8z"/><path class="st5" d="M460.4 31.4c0 .2.1.3 0 .5 0 .2-.1.3-.2.5l-4.3 7.5c-.2.3-.5.5-.8.6-.3.1-.7 0-1-.1l-12.8-7.3c-.3-.2-.5-.5-.6-.8-.1-.3 0-.7.1-1l4.3-7.5c.2-.3.5-.5.8-.6.3-.1.7 0 1 .1l12.8 7.3c.1.1.3.2.4.3.2.2.2.4.3.5z"/><path class="st3" d="M442 32l4.3-7.5 12.8 7.3-4.3 7.5L442 32zm-2.5.6c.1.3.2.6.4.9.2.3.5.5.8.7l12.8 7.3c.3.2.6.3 1 .3.3 0 .7 0 1-.1.3-.1.6-.2.9-.5s.5-.5.7-.8l4.3-7.5c.3-.6.4-1.3.3-2s-.6-1.2-1.2-1.6L447.7 22c-.3-.2-.6-.3-1-.3-.3 0-.7 0-1 .1-.3.1-.6.2-.9.5-.3.2-.5.5-.7.8l-4.3 7.5c-.4.7-.5 1.4-.3 2z"/><path class="st5" d="M314.2 136.8c0 .2-.1.3-.2.5-.1.1-.2.3-.4.3l-7.4 4.6c-.1.1-.3.1-.5.2s-.3 0-.5 0-.3-.1-.5-.2c-.1-.1-.3-.2-.3-.4l-7.7-12.6c-.2-.3-.2-.6-.2-1 0-.2.1-.3.2-.5.1-.1.2-.3.4-.3l7.4-4.6c.1-.1.3-.1.5-.2h.5c.2 0 .3.1.5.2.1.1.3.2.3.4l7.7 12.6c.2.3.2.7.2 1z"/><path class="st3" d="M297.8 128.5l7.4-4.6 7.7 12.6-7.4 4.6-7.7-12.6zm-2.6-.6c-.2.7 0 1.4.3 2l7.7 12.6c.4.6.9 1 1.6 1.2.7.2 1.4 0 2-.3l7.4-4.6c.6-.4 1-.9 1.2-1.6.2-.7 0-1.4-.3-2l-7.7-12.6c-.2-.3-.4-.5-.7-.7-.3-.2-.6-.3-.9-.4-.3-.1-.7-.1-1 0-.3.1-.7.2-1 .4l-7.4 4.6c-.3.2-.5.4-.7.7-.2 0-.4.4-.5.7z"/><path class="st2" d="M1122.9 111h-.5c-.2 0-.3-.1-.5-.2l-6.8-5.4c-.3-.2-.4-.5-.5-.9 0-.3.1-.7.3-1l9.2-11.6c.2-.3.5-.4.9-.5h.5c.2 0 .3.1.4.2l6.8 5.4c.3.2.4.5.5.9 0 .3-.1.7-.3 1l-9.2 11.5c-.2.4-.5.6-.8.6z"/><path class="st3" d="M1125.1 92.8l6.8 5.4-9.2 11.6-6.8-5.4 9.2-11.6zm-.3-2.6c-.7.1-1.3.4-1.7 1l-9.2 11.5c-.2.3-.4.6-.5.9-.1.3-.1.7-.1 1 0 .3.1.7.3 1 .2.3.4.6.7.8l6.8 5.4c.3.2.6.4.9.5.3.1.7.1 1 .1.3 0 .7-.1 1-.3.3-.2.6-.4.8-.7l9.2-11.5c.2-.3.4-.6.5-.9.1-.3.1-.7.1-1 0-.3-.2-.7-.3-1-.2-.3-.4-.6-.7-.8l-6.8-5.4c-.3-.2-.6-.4-.9-.5-.4-.1-.7-.1-1.1-.1z"/><path class="st2" d="M920.8 75.5h-.5c-.2 0-.3-.1-.5-.2l-6.8-5.4c-.3-.2-.4-.5-.5-.9 0-.3.1-.7.3-1l9.2-11.6c.2-.3.5-.4.9-.5h.5c.2 0 .3.1.5.2l6.8 5.4c.3.2.4.5.5.9 0 .3-.1.7-.3 1L921.7 75c-.2.3-.5.4-.9.5z"/><path class="st3" d="M923.1 57.2l6.8 5.4-9.2 11.6-6.8-5.4 9.2-11.6zm-.3-2.6c-.7.1-1.3.4-1.7 1l-9.2 11.5c-.2.3-.4.6-.5.9-.1.3-.1.7-.1 1 0 .3.1.7.3 1s.4.6.7.8l6.8 5.4c.3.2.6.4.9.5.3.1.7.1 1 .1.3 0 .7-.1 1-.3.3-.2.6-.4.8-.7l9.2-11.5c.2-.3.4-.6.5-.9.1-.3.1-.7.1-1 0-.3-.1-.7-.3-1s-.4-.6-.7-.8l-6.8-5.4c-.3-.2-.6-.4-.9-.5-.4-.1-.8-.1-1.1-.1z"/><path class="st2" d="M1340.5 130.5c-.2 0-.3-.1-.5-.2s-.3-.2-.4-.3l-5.4-6.8c-.1-.1-.2-.3-.2-.5s-.1-.3 0-.5c0-.2.1-.3.2-.5.1-.1.2-.3.3-.4l11.6-9.1c.3-.2.6-.3 1-.3.2 0 .3.1.5.2s.3.2.4.3l5.4 6.9c.2.3.3.6.3 1 0 .3-.2.7-.5.9l-11.6 9.1c-.4.2-.8.3-1.1.2z"/><path class="st3" d="M1346.9 113.3l5.4 6.8-11.6 9.1-5.4-6.8 11.6-9.1zm.3-2.6c-.7-.1-1.4.1-1.9.5l-11.6 9.1c-.5.4-.9 1.1-1 1.7-.1.7.1 1.4.5 1.9l5.4 6.8c.4.5 1.1.9 1.7 1 .7.1 1.4-.1 1.9-.5l11.6-9.1c.5-.4.9-1.1 1-1.7.1-.7-.1-1.4-.5-1.9l-5.4-6.8c-.4-.6-1-1-1.7-1z"/><path class="st4" d="M1101.8 66.1c-.3-.2-.5-.5-.6-.8l-1.9-8.5v-.5c0-.2.1-.3.2-.5.1-.1.2-.3.4-.4.1-.1.3-.2.5-.2l14.4-3.2c.3-.1.7 0 1 .2.3.2.5.5.6.8l1.9 8.5v.5c0 .2-.1.3-.2.5-.1.1-.2.3-.4.4-.1.1-.3.2-.5.2l-14.4 3.2c-.4.1-.7 0-1-.2z"/><path class="st3" d="M1115 53.4l1.9 8.5-14.4 3.2-1.9-8.5 14.4-3.2zm1.4-2.2c-.3-.2-.6-.3-.9-.4-.3-.1-.7-.1-1 0L1100 54c-.3.1-.6.2-.9.4-.3.2-.5.4-.7.7-.2.3-.3.6-.4.9-.1.3 0 .7 0 1l1.9 8.5c.1.3.2.6.4.9.2.3.4.5.7.7.3.2.6.3.9.4.3.1.7.1 1 0l14.4-3.2c.3-.1.7-.2.9-.4.3-.2.5-.4.7-.7.2-.3.3-.6.4-.9.1-.3 0-.7 0-1l-1.9-8.5c0-.7-.4-1.3-1-1.6z"/><path class="st4" d="M1051.7 41.4h-.5c-.2 0-.3-.1-.5-.2l-12-8.6c-.1-.1-.3-.2-.4-.4-.1-.1-.2-.3-.2-.5v-.5c0-.2.1-.3.2-.5l5-7.1c.2-.3.5-.5.9-.5h.5c.2 0 .3.1.5.2l12 8.6c.3.2.5.5.5.8.1.3 0 .7-.2 1l-5 7.1c-.1.4-.4.5-.8.6z"/><path class="st3" d="M1044.6 24.5l12 8.6-5 7.1-12-8.6 5-7.1zm-.5-2.6c-.3.1-.7.2-.9.4-.3.2-.5.4-.7.7l-5 7.1c-.4.6-.6 1.3-.5 1.9.1.7.5 1.3 1.1 1.7l12 8.6c.6.4 1.3.6 1.9.4.7-.1 1.3-.5 1.7-1.1l5-7.1c.4-.6.6-1.3.4-1.9 0-.3-.2-.7-.4-1-.2-.3-.4-.5-.7-.7l-12-8.6c-.3-.2-.6-.3-.9-.4h-1z"/><path class="st4" d="M1136.7 161.3c-.2.1-.3.1-.5.1s-.3 0-.5-.1l-13.7-5.4c-.3-.1-.6-.4-.7-.7-.1-.3-.1-.7 0-1l3.2-8.1c.1-.2.2-.3.3-.4.1-.1.3-.2.4-.3.2-.1.3-.1.5-.1s.3 0 .5.1l13.7 5.4c.3.1.6.4.7.7.1.3.1.7 0 1l-3.2 8.1c-.2.3-.4.5-.7.7z"/><path class="st3" d="M1125.6 146.6l13.7 5.4-3.2 8.1-13.7-5.4 3.2-8.1zm-1-2.4c-.6.3-1.1.8-1.4 1.4l-3.2 8.1c-.1.3-.2.7-.2 1 0 .3.1.7.2 1 .1.3.3.6.6.8.2.2.5.4.9.6l13.7 5.4c.6.3 1.4.2 2 0 .6-.3 1.1-.8 1.4-1.4l3.2-8.1c.2-.6.2-1.4 0-2-.3-.6-.8-1.1-1.4-1.4l-13.7-5.4c-.8-.3-1.5-.3-2.1 0z"/><path class="st5" d="M1120.8 19.3c-.2.1-.3.1-.5.2h-.5l-14.1-4.2c-.3-.1-.6-.3-.8-.6-.2-.3-.2-.7-.1-1l2.5-8.3c.1-.3.3-.6.6-.8.3-.2.7-.2 1-.1l14.1 4.2c.3.1.6.3.8.6.2.3.2.7.1 1l-2.4 8.3c-.1.2-.1.3-.2.5-.2 0-.3.1-.5.2z"/><path class="st3" d="M1108.6 5.7l14.1 4.2-2.5 8.3-14.1-4.2 2.5-8.3zm-1.3-2.3c-.6.3-1.1.9-1.3 1.5l-2.5 8.3c-.1.3-.1.7-.1 1 0 .3.1.7.3 1 .2.3.4.6.6.8s.6.4.9.5l14.1 4.2c.7.2 1.4.1 2-.2.6-.3 1.1-.9 1.3-1.5l2.5-8.3c.2-.7.1-1.4-.2-2-.3-.6-.9-1.1-1.5-1.3l-14.1-4.2c-.3-.1-.7-.1-1-.1s-.7.1-1 .3z"/><path class="st2" d="M1168.1 80.7c-.2.1-.3.1-.5.1s-.3 0-.5-.1l-13.6-5.8c-.3-.1-.6-.4-.7-.7-.1-.3-.1-.7 0-1l3.4-8c.1-.2.2-.3.3-.4.1-.1.3-.2.4-.3.2-.1.3-.1.5-.1s.3 0 .5.1l13.6 5.8c.2.1.3.2.4.3s.2.3.3.4c.1.2.1.3.1.5s0 .3-.1.5l-3.4 8c-.1.2-.2.3-.3.4-.1.2-.3.3-.4.3z"/><path class="st3" d="M1157.4 65.8l13.6 5.8-3.4 8-13.6-5.8 3.4-8zm-1-2.4c-.3.1-.6.3-.9.6-.2.2-.4.5-.6.8l-3.4 8c-.1.3-.2.7-.2 1 0 .3.1.7.2 1 .1.3.3.6.6.8.2.2.5.4.8.6l13.6 5.8c.6.3 1.4.3 2 0 .6-.3 1.1-.8 1.4-1.4l3.4-8c.1-.3.2-.7.2-1 0-.3-.1-.7-.2-1-.1-.3-.3-.6-.6-.8-.2-.2-.5-.4-.8-.6l-13.6-5.8c-.5-.3-1.2-.3-1.9 0z"/><path class="st2" d="M1340.7 482.9c-.3.1-.7.1-1-.1l-13-7c-.2-.1-.3-.2-.4-.3-.1-.1-.2-.3-.2-.4 0-.2-.1-.3 0-.5 0-.2.1-.3.2-.5l4.1-7.6c.1-.2.2-.3.3-.4.1-.1.3-.2.5-.2.3-.1.7-.1 1 .1l13 7c.2.1.3.2.4.3.1.1.2.3.2.4 0 .2.1.3 0 .5 0 .2-.1.3-.1.5l-4.1 7.6c-.3.3-.5.5-.9.6z"/><path class="st3" d="M1331.5 467l13 7-4.1 7.6-13-7 4.1-7.6zm-.7-2.5c-.3.1-.6.3-.9.5-.3.2-.5.5-.6.8l-4.1 7.6c-.2.3-.3.6-.3 1 0 .3 0 .7.1 1 .1.3.3.6.5.9.2.3.5.5.8.6l13 7c.3.2.6.3 1 .3.3 0 .7 0 1-.1.3-.1.6-.3.9-.5.3-.2.5-.5.6-.8l4.1-7.6c.2-.3.3-.6.3-1 0-.3 0-.7-.1-1-.1-.3-.3-.6-.5-.9-.2-.3-.5-.5-.8-.6l-13-7c-.3-.2-.6-.3-1-.3s-.7 0-1 .1z"/><path class="st2" d="M1298.5 224.8c-.2.1-.3.1-.5.1s-.3 0-.5-.1l-13.5-6c-.2-.1-.3-.2-.4-.3-.1-.1-.2-.3-.3-.4-.1-.3-.1-.7 0-1l3.5-7.9c.1-.2.2-.3.3-.4.1-.1.3-.2.4-.3.2-.1.3-.1.5-.1s.3 0 .5.1l13.5 6c.2.1.3.2.4.3.1.1.2.3.3.4.1.2.1.3.1.5s0 .3-.1.5l-3.5 7.9c-.2.4-.4.6-.7.7z"/><path class="st3" d="M1288 209.7l13.5 6-3.5 7.9-13.5-6 3.5-7.9zm-.9-2.4c-.3.1-.6.3-.9.5s-.4.5-.6.8l-3.5 7.9c-.3.6-.3 1.3-.1 2 .2.6.7 1.2 1.4 1.4l13.5 6c.6.3 1.3.3 2 0 .6-.2 1.2-.7 1.4-1.4l3.5-7.9c.1-.3.2-.6.2-1s-.1-.7-.2-1c-.1-.3-.3-.6-.5-.9-.2-.2-.5-.4-.8-.6l-13.5-6c-.5 0-1.3 0-1.9.2z"/><path class="st2" d="M1354.2 370.9c-.2 0-.3-.1-.5-.2s-.3-.2-.4-.3l-9.1-11.7c-.2-.3-.3-.6-.3-1 0-.3.2-.7.5-.9l6.8-5.3c.1-.1.3-.2.5-.2s.3-.1.5 0c.2 0 .3.1.5.2s.3.2.4.3l9 11.6c.2.3.3.6.3 1 0 .2-.1.3-.2.5-.1.1-.2.3-.3.4l-6.9 5.3c-.1.3-.4.4-.8.3z"/><path class="st3" d="M1352.2 352.6l9.1 11.6-6.9 5.3-9-11.6 6.8-5.3zm.3-2.6c-.3 0-.7 0-1 .1-.3.1-.6.2-.9.5l-6.8 5.3c-.5.4-.9 1-1 1.7-.1.7.1 1.4.5 1.9l9.1 11.6c.2.3.5.5.8.7.3.2.6.3 1 .3.7.1 1.4-.1 1.9-.5l6.9-5.3c.5-.4.9-1.1 1-1.7.1-.7-.1-1.4-.5-1.9l-9.1-11.6c-.2-.3-.5-.5-.8-.7-.5-.2-.8-.3-1.1-.4z"/><path class="st7" d="M1169.1 36.7c-.2-.1-.3-.2-.4-.3-.1-.1-.2-.3-.2-.4l-2.5-8.3c0-.2-.1-.3 0-.5 0-.2.1-.3.1-.5.2-.3.4-.5.8-.6l14.1-4.3c.2-.1.3-.1.5-.1s.3.1.5.1c.3.2.5.4.6.8l2.5 8.3c.1.3.1.7-.1 1-.2.3-.4.5-.8.6l-14.1 4.3c-.3.1-.7.1-1-.1z"/><path class="st3" d="M1181.3 23l2.5 8.3-14.1 4.3-2.5-8.3 14.1-4.3zm1.2-2.3c-.6-.3-1.3-.4-2-.2l-14.1 4.3c-.3.1-.6.3-.9.5-.3.2-.5.5-.6.8-.3.6-.4 1.3-.2 2l2.5 8.3c.1.3.3.6.5.9.2.3.5.5.8.6.3.2.6.3 1 .3.3 0 .7 0 1-.1l14.1-4.3c.7-.2 1.2-.7 1.5-1.3.3-.6.4-1.3.2-2l-2.5-8.3c-.1-.3-.3-.6-.5-.9-.2-.3-.5-.5-.8-.6z"/><path class="st5" d="M1032.9 70.3c-.1-.1-.2-.3-.2-.5v-.5l1.5-8.6c.1-.3.3-.6.5-.8.3-.2.6-.3 1-.2l14.5 2.5c.3.1.6.3.8.5.2.3.3.6.2 1l-1.5 8.6c0 .2-.1.3-.2.5-.1.1-.2.3-.3.4-.1.1-.3.2-.5.2h-.5l-14.5-2.5c-.3-.1-.6-.3-.8-.6z"/><path class="st3" d="M1050 63.5l-1.5 8.6-14.5-2.5 1.5-8.6 14.5 2.5zm2.1-1.5c-.2-.3-.4-.5-.7-.7-.3-.2-.6-.3-.9-.4l-14.5-2.5c-.3-.1-.7-.1-1 0-.3.1-.7.2-.9.4-.3.2-.5.4-.7.7-.2.3-.3.6-.4.9l-1.5 8.6c-.1.3 0 .7 0 1 .1.3.2.6.4.9.2.3.4.5.7.7.3.2.6.3.9.4l14.5 2.5c.3.1.7 0 1 0 .3-.1.7-.2.9-.4.3-.2.5-.4.7-.7.2-.3.3-.6.4-.9l1.5-8.6c.1-.3.1-.7 0-1-.1-.3-.2-.6-.4-.9z"/><path class="st5" d="M577.6 92.4c-.3.1-.7.1-1-.1l-7.7-4c-.3-.2-.5-.4-.6-.8-.1-.3-.1-.7.1-1l6.8-13.1c.2-.3.4-.5.8-.6.2-.1.3-.1.5-.1s.3.1.5.1l7.7 4c.3.2.5.4.6.8.1.3.1.7-.1 1l-6.8 13.1c-.1.2-.2.3-.3.4-.2.2-.4.3-.5.3z"/><path class="st3" d="M576.3 74.1l7.7 4-6.8 13.1-7.7-4 6.8-13.1zm-.8-2.5c-.3.1-.6.3-.9.5-.3.2-.5.5-.6.8L567.2 86c-.3.6-.4 1.3-.2 2s.7 1.2 1.3 1.5l7.7 4c.3.2.6.3 1 .3.3 0 .7 0 1-.1.3-.1.6-.3.9-.5.3-.2.5-.5.6-.8l6.8-13.1c.2-.3.3-.6.3-1 0-.3 0-.7-.1-1-.1-.3-.3-.6-.5-.9-.2-.3-.5-.5-.8-.6l-7.7-4c-.3-.2-.6-.3-1-.3-.3 0-.6 0-1 .1z"/><path class="st2" d="M1174.3 190.7c-.1-.1-.3-.2-.4-.4-.1-.1-.2-.3-.2-.5l-1.5-8.6c-.1-.3 0-.7.2-1 .2-.3.5-.5.8-.5l14.5-2.5h.5c.2 0 .3.1.5.2.3.2.5.5.5.8l1.5 8.6c.1.3 0 .7-.2 1-.2.3-.5.5-.8.5l-14.5 2.5h-.5c-.1.1-.3 0-.4-.1z"/><path class="st3" d="M1188.1 178.6l1.5 8.6-14.5 2.5-1.5-8.6 14.5-2.5zm1.5-2.1c-.6-.4-1.3-.6-1.9-.4l-14.5 2.5c-.3.1-.7.2-.9.4-.3.2-.5.4-.7.7-.2.3-.3.6-.4.9-.1.3-.1.7 0 1l1.5 8.6c.1.3.2.7.4.9.2.3.4.5.7.7.3.2.6.3.9.4.3.1.7.1 1 0l14.5-2.5c.3-.1.7-.2.9-.4.3-.2.5-.4.7-.7.2-.3.3-.6.4-.9.1-.3.1-.7 0-1l-1.5-8.6c-.1-.3-.2-.7-.4-.9-.2-.3-.4-.5-.7-.7z"/><path class="st4" d="M1367.6 177.9c-.1.1-.3.2-.4.2-.2.1-.3.1-.5.1L1352 177c-.2 0-.3-.1-.5-.1-.2-.1-.3-.2-.4-.3-.1-.1-.2-.3-.2-.4 0-.2-.1-.3-.1-.5l.7-8.6c0-.3.2-.6.4-.9.1-.1.3-.2.4-.2.2-.1.3-.1.5-.1l14.7 1.2c.4 0 .7.2.9.5.2.3.3.6.3.9l-.7 8.6c0 .2-.1.3-.1.5 0 .1-.1.2-.3.3z"/><path class="st3" d="M1352.8 167.1l14.7 1.2-.7 8.6-14.7-1.2.7-8.6zm-1.7-2c-.3.2-.5.5-.6.8-.2.3-.2.6-.3 1l-.7 8.6c0 .3 0 .7.1 1 .1.3.3.6.5.9.2.3.5.5.8.6.3.2.6.2 1 .3l14.7 1.2c.7.1 1.4-.2 1.9-.6.5-.4.9-1.1.9-1.8l.7-8.6c0-.3 0-.7-.1-1-.1-.3-.3-.6-.5-.9-.2-.3-.5-.5-.8-.6-.3-.2-.6-.3-1-.3l-14.7-1.2c-.7-.1-1.4.1-1.9.6z"/><path class="st4" d="M1196.4 242.1c-.3.2-.6.3-.9.3l-14.7-1.2c-.2 0-.3-.1-.5-.1-.2-.1-.3-.2-.4-.3-.1-.1-.2-.3-.2-.4-.1-.2-.1-.3-.1-.5l.7-8.6c0-.3.2-.6.5-.9.1-.1.3-.2.4-.2.2-.1.3-.1.5-.1l14.7 1.2c.3 0 .7.2.9.5.2.3.3.6.3.9l-.7 8.6c-.1.3-.3.6-.5.8z"/><path class="st3" d="M1181.5 231.3l14.7 1.2-.7 8.7-14.7-1.2.7-8.7zm-1.6-2c-.5.4-.9 1.1-.9 1.8l-.7 8.6c0 .3 0 .7.1 1 .1.3.3.6.5.9.2.3.5.5.8.6.3.2.6.3 1 .3l14.7 1.2c.3 0 .7 0 1-.1.3-.1.6-.3.9-.5.3-.2.5-.5.6-.8.2-.3.3-.6.3-1l.7-8.6c0-.3 0-.7-.1-1-.1-.3-.3-.6-.5-.9-.2-.3-.5-.5-.8-.6-.3-.2-.6-.3-1-.3l-14.7-1.2c-.3 0-.7 0-1 .1-.4.1-.7.3-.9.5z"/><path class="st6" d="M1273.3 272.4c-.3.2-.6.2-1 .1L1258 269c-.3-.1-.6-.3-.8-.6s-.2-.6-.2-1l2.1-8.4c0-.2.1-.3.2-.5.1-.1.2-.3.4-.3.1-.1.3-.1.5-.2h.5l14.3 3.6c.3.1.6.3.8.6.2.3.2.6.1 1l-2.1 8.4c0 .3-.2.6-.5.8z"/><path class="st3" d="M1260.5 259.3l14.3 3.6-2.1 8.4-14.3-3.6 2.1-8.4zm-1.4-2.3c-.6.4-1 .9-1.2 1.6l-2.1 8.4c-.2.7-.1 1.4.3 2 .4.6.9 1 1.6 1.2l14.3 3.6c.3.1.7.1 1 0 .3-.1.7-.2.9-.3.3-.2.6-.4.8-.7.2-.3.3-.6.4-.9l2.1-8.4c.1-.3.1-.7.1-1-.1-.3-.2-.7-.4-1-.2-.3-.4-.5-.7-.8-.3-.2-.6-.4-.9-.4l-14.3-3.6c-.6-.1-1.3 0-1.9.3z"/><path class="st7" d="M1247.6 235.1h-.5c-.2 0-.3-.1-.5-.2l-11.4-9.3c-.1-.1-.2-.2-.3-.4-.1-.1-.1-.3-.1-.5v-.5c.1-.2.1-.3.2-.4l5.5-6.7c.1-.1.2-.2.4-.3.2-.1.3-.1.5-.2h.5c.2 0 .3.1.5.2l11.4 9.3c.1.1.2.2.3.4.1.2.1.3.2.5v.5c0 .2-.1.3-.2.4l-5.5 6.7c-.1.1-.2.2-.4.3-.3.1-.4.2-.6.2z"/><path class="st3" d="M1241.5 217.8l11.4 9.3-5.5 6.7-11.4-9.3 5.5-6.7zm-.3-2.6c-.7.1-1.3.4-1.7 1l-5.5 6.7c-.2.3-.4.6-.5.9-.1.3-.1.7-.1 1 0 .3.1.7.3 1 .2.3.4.6.6.8l11.4 9.3c.5.4 1.2.6 1.9.6.7-.1 1.3-.4 1.7-.9l5.5-6.7c.2-.3.4-.6.5-.9s.1-.7.1-1c0-.3-.1-.7-.3-1-.2-.3-.4-.6-.6-.8l-11.4-9.3c-.5-.6-1.2-.8-1.9-.7z"/><path class="st7" d="M1287.3 413.7c-.2.1-.3.2-.5.2h-.5l-14.4-3.4c-.3-.1-.6-.3-.8-.6-.2-.3-.2-.6-.2-1l2-8.4c0-.2.1-.3.2-.5.1-.1.2-.3.4-.3.2-.1.3-.1.5-.2h.5l14.3 3.4c.2 0 .3.1.5.2.1.1.3.2.3.4.1.1.2.3.2.5v.5l-2 8.4c0 .3-.2.6-.5.8z"/><path class="st3" d="M1274.3 400.8l14.3 3.4-2 8.4-14.3-3.4 2-8.4zm-1.4-2.3c-.3.2-.5.4-.7.7-.2.3-.3.6-.4.9l-2 8.4c-.2.7 0 1.4.3 2 .4.6.9 1 1.6 1.2l14.3 3.4c.3.1.7.1 1 0 .3-.1.7-.2.9-.4.3-.2.6-.4.7-.7.2-.3.3-.6.4-.9l2-8.4c.1-.3.1-.7 0-1-.1-.3-.2-.7-.4-1-.2-.3-.4-.5-.7-.7-.3-.2-.6-.3-.9-.4l-14.4-3.4c-.3-.1-.7-.1-1 0-.1.1-.4.2-.7.3z"/><path class="st7" d="M1276.5 325.9c-.1.1-.3.2-.4.3-.2.1-.3.1-.5.1l-8.6-.6c-.3 0-.7-.2-.9-.4-.1-.1-.2-.3-.3-.4-.1-.2-.1-.3-.1-.5l1-14.7c0-.3.2-.7.4-.9.3-.2.6-.3.9-.3l8.7.6c.3 0 .7.2.9.4.2.3.3.6.3.9l-1 14.7c0 .3-.2.6-.4.8z"/><path class="st3" d="M1267.9 309.7l8.7.6-1 14.7-8.6-.6.9-14.7zm-1.7-2c-.5.5-.8 1.1-.9 1.8l-1 14.7c0 .7.2 1.4.6 1.9.5.5 1.1.8 1.8.9l8.7.6c.7 0 1.4-.2 1.9-.6.5-.5.8-1.1.9-1.8l1-14.7c0-.7-.2-1.4-.6-1.9-.5-.5-1.1-.8-1.8-.9l-8.7-.6c-.7-.1-1.4.2-1.9.6z"/><path class="st4" d="M1234.1 193.3c-.4 0-.7-.1-.9-.4l-6.1-6.1c-.2-.2-.4-.6-.4-.9 0-.3.1-.7.4-.9l10.4-10.4c.2-.2.6-.4.9-.4.3 0 .7.1.9.4l6.1 6.1c.2.2.4.6.4.9 0 .3-.1.7-.4.9l-10.4 10.4c-.3.2-.6.4-.9.4z"/><path class="st3" d="M1238.4 175.4l6.1 6.1-10.4 10.4-6.1-6.1 10.4-10.4zm0-2.6c-.7 0-1.3.3-1.8.8l-10.4 10.4c-.5.5-.8 1.1-.8 1.8s.3 1.4.8 1.8l6.1 6.1c.5.5 1.1.8 1.8.8s1.3-.3 1.8-.8l10.4-10.4c.5-.5.8-1.1.8-1.8s-.3-1.4-.8-1.8l-6.1-6.1c-.5-.5-1.2-.8-1.8-.8z"/><path class="st7" d="M1344.3 317.5c-.3-.1-.6-.3-.8-.6l-4.6-7.3c-.1-.1-.2-.3-.2-.5v-.5c0-.2.1-.3.2-.5.1-.1.2-.3.4-.3l12.5-7.8c.3-.2.6-.2 1-.2.3.1.6.3.8.6l4.6 7.4c.2.3.2.6.2 1-.1.3-.3.6-.6.8l-12.5 7.8c-.1.1-.3.2-.5.2-.2-.1-.4-.1-.5-.1z"/><path class="st3" d="M1352.5 301l4.6 7.3-12.5 7.8-4.6-7.3 12.5-7.8zm.5-2.5c-.7-.2-1.4 0-2 .3l-12.5 7.8c-.3.2-.5.4-.7.7-.2.3-.3.6-.4.9-.1.3-.1.7 0 1 .1.3.2.7.4 1l4.6 7.4c.4.6.9 1 1.6 1.2.7.2 1.4 0 2-.3l12.5-7.8c.3-.2.5-.4.7-.7.2-.3.3-.6.4-.9.1-.3.1-.7 0-1-.1-.3-.2-.7-.4-.9l-4.6-7.4c-.2-.3-.4-.5-.7-.7-.2-.3-.5-.5-.9-.6z"/><path class="st4" d="M1307.3 288.1c-.3-.2-.6-.4-.7-.7l-2.8-8.2c-.1-.2-.1-.3-.1-.5s.1-.3.1-.5c.1-.2.2-.3.3-.4.1-.1.3-.2.4-.3l13.9-4.8c.2-.1.3-.1.5-.1s.3.1.5.1c.3.2.6.4.7.7l2.8 8.2c.1.3.1.7-.1 1-.2.3-.4.5-.7.7l-13.9 4.8c-.3.2-.6.2-.9 0z"/><path class="st3" d="M1318.9 273.9l2.8 8.2-13.9 4.8-2.8-8.2 13.9-4.8zm1.2-2.3c-.3-.1-.6-.2-1-.3s-.7 0-1 .1l-13.9 4.8c-.7.2-1.2.7-1.5 1.3-.3.6-.4 1.3-.1 2l2.8 8.2c.1.3.3.6.5.9.2.3.5.5.8.6.3.1.6.2 1 .3.3 0 .7 0 1-.1l13.9-4.8c.7-.2 1.2-.7 1.5-1.3.2-.3.2-.6.3-1 0-.3 0-.7-.1-1l-2.8-8.2c-.3-.6-.8-1.2-1.4-1.5z"/><path class="st5" d="M1347.7 229.7c-.3 0-.7-.1-.9-.4l-6.1-6.1c-.2-.2-.4-.6-.4-.9 0-.3.1-.7.4-.9L1351 211c.2-.2.6-.4.9-.4.3 0 .7.1.9.4l6.1 6.1c.2.2.4.6.4.9 0 .3-.1.7-.4.9l-10.4 10.4c-.2.3-.5.4-.8.4z"/><path class="st3" d="M1352 211.9l6.1 6.1-10.4 10.4-6.1-6.1 10.4-10.4zm0-2.6c-.7 0-1.4.3-1.8.8l-10.4 10.4c-.5.5-.8 1.2-.8 1.8 0 .7.3 1.4.8 1.8l6.1 6.1c.5.5 1.1.8 1.8.8s1.4-.3 1.8-.8l10.4-10.4c.5-.5.8-1.2.8-1.8 0-.7-.3-1.4-.8-1.8l-6.1-6.1c-.5-.6-1.2-.8-1.8-.8z"/><path class="st5" d="M1311.6 360.9c-.3.2-.6.2-1 .1l-8.4-2.2c-.2 0-.3-.1-.5-.2-.1-.1-.3-.2-.3-.4-.1-.1-.1-.3-.2-.5v-.5l3.7-14.3c0-.2.1-.3.2-.5.1-.1.2-.3.4-.3.3-.2.6-.2 1-.1l8.4 2.2c.3.1.6.3.8.6.2.3.2.7.1 1l-3.7 14.3c0 .2-.1.3-.2.5 0 .1-.2.3-.3.3z"/><path class="st3" d="M1306.3 343.4l8.4 2.2-3.7 14.3-8.4-2.2 3.7-14.3zm-1.3-2.3c-.6.3-1 .9-1.2 1.6l-3.7 14.3c-.1.3-.1.7-.1 1 0 .3.2.7.3 1 .2.3.4.6.7.8.3.2.6.4.9.4l8.4 2.2c.7.2 1.4.1 2-.3.6-.3 1-.9 1.2-1.6l3.7-14.3c.2-.7.1-1.4-.3-2-.4-.6-.9-1-1.6-1.2l-8.4-2.2c-.6-.1-1.3 0-1.9.3z"/><path class="st5" d="M91.9 232.3c-.2.3-.5.4-.9.4l-8.6.7c-.3 0-.7-.1-.9-.3-.3-.2-.4-.5-.5-.9l-1.2-14.7c0-.2 0-.3.1-.5s.1-.3.2-.4c.2-.3.5-.4.9-.4l8.6-.7c.3 0 .7.1.9.3.3.2.4.5.5.9l1.2 14.7c0 .2 0 .3-.1.5 0 .1-.1.3-.2.4z"/><path class="st3" d="M81 217.5l8.6-.7 1.2 14.7-8.7.7-1.1-14.7zm-2-1.7c-.2.3-.4.6-.5.9-.1.3-.1.7-.1 1l1.2 14.7c0 .3.1.7.3 1 .2.3.4.6.6.8.3.2.6.4.9.5.3.1.7.1 1 .1l8.6-.7c.7-.1 1.3-.4 1.8-.9.4-.5.7-1.2.6-1.9l-1.2-14.7c-.1-.7-.4-1.3-.9-1.8-.5-.4-1.2-.7-1.9-.6l-8.6.7c-.3 0-.7.1-1 .3-.3.1-.5.3-.8.6z"/><path class="st2" d="M816.1 88c-.1-.1-.2-.3-.3-.4-.1-.2-.1-.3-.1-.5l-.1-8.7c0-.2 0-.3.1-.5s.2-.3.3-.4c.1-.1.3-.2.4-.3.2-.1.3-.1.5-.1l14.7-.2c.2 0 .3 0 .5.1s.3.2.4.3c.1.1.2.3.3.4.1.2.1.3.1.5l.1 8.7c0 .3-.1.7-.4.9-.2.2-.6.4-.9.4l-14.7.2c-.2 0-.3 0-.5-.1s-.3-.2-.4-.3z"/><path class="st3" d="M831.6 78.2l.1 8.7-14.7.2-.1-8.7 14.7-.2zm1.8-1.9c-.2-.2-.5-.4-.9-.6-.3-.1-.7-.2-1-.2l-14.7.2c-.3 0-.7.1-1 .2-.3.1-.6.3-.8.6-.2.2-.4.5-.6.9-.1.3-.2.7-.2 1l.1 8.7c0 .3.1.7.2 1 .1.3.3.6.6.8s.5.4.9.6c.3.1.7.2 1 .2l14.7-.2c.3 0 .7-.1 1-.2.3-.1.6-.3.8-.6.2-.2.4-.5.6-.9.1-.3.2-.7.2-1l-.1-8.7c0-.7-.3-1.3-.8-1.8z"/><path class="st5" d="M1097.1 183.7c-.3 0-.7-.1-.9-.4l-6.1-6.1c-.2-.2-.4-.6-.4-.9 0-.3.1-.7.4-.9l10.4-10.4c.2-.2.6-.4.9-.4.3 0 .7.1.9.4l6.1 6.1c.2.2.4.6.4.9 0 .3-.1.7-.4.9l-10.4 10.4c-.3.3-.6.4-.9.4z"/><path class="st3" d="M1101.3 165.9l6.1 6.1-10.4 10.4-6.1-6.1 10.4-10.4zm0-2.6c-.7 0-1.3.3-1.8.8l-10.4 10.4c-.5.5-.8 1.1-.8 1.8s.3 1.4.8 1.8l6.1 6.1c.5.5 1.1.8 1.8.8s1.3-.3 1.8-.8l10.4-10.4c.5-.5.8-1.1.8-1.8s-.3-1.4-.8-1.8l-6.1-6.1c-.4-.5-1.1-.8-1.8-.8z"/><path class="st5" d="M882.8 156.8c-.1.1-.3.2-.4.2-.2.1-.3.1-.5.1l-14.7-1.4c-.3 0-.7-.2-.9-.5-.2-.3-.3-.6-.3-1l.8-8.6c0-.2.1-.3.1-.5.1-.2.2-.3.3-.4.1-.1.3-.2.4-.2.2 0 .3-.1.5 0l14.7 1.4c.2 0 .3.1.5.1.2.1.3.2.4.3.1.1.2.3.2.4.1.2.1.3.1.5l-.8 8.6c0 .4-.1.7-.4 1z"/><path class="st3" d="M868.1 145.7l14.7 1.4-.8 8.6-14.7-1.4.8-8.6zm-1.6-2c-.3.2-.5.5-.6.8-.2.3-.3.6-.3 1l-.8 8.6c0 .3 0 .7.1 1 .1.3.3.6.5.9.2.3.5.5.8.6.3.2.6.3 1 .3l14.7 1.4c.3 0 .7 0 1-.1.3-.1.6-.3.9-.5.3-.2.5-.5.6-.8s.3-.6.3-1l.8-8.6c.1-.7-.1-1.4-.6-1.9-.4-.5-1.1-.9-1.8-.9l-14.7-1.4c-.7 0-1.4.2-1.9.6z"/><path class="st7" d="M766.2 142.5c-.3 0-.7-.1-.9-.4l-10.4-10.4c-.2-.2-.4-.6-.4-.9 0-.3.1-.7.4-.9l6.1-6.1c.2-.2.6-.4.9-.4.3 0 .7.1.9.4l10.4 10.4c.2.2.4.6.4.9 0 .3-.1.7-.4.9l-6.1 6.1c-.2.3-.6.4-.9.4z"/><path class="st3" d="M761.9 124.7l10.4 10.4-6.1 6.1-10.4-10.4 6.1-6.1zm0-2.6c-.7 0-1.4.3-1.8.8L754 129c-.5.5-.8 1.2-.8 1.8 0 .7.3 1.4.8 1.8l10.4 10.4c.5.5 1.1.8 1.8.8s1.4-.3 1.8-.8l6.2-6.1c.5-.5.8-1.1.8-1.8s-.3-1.4-.8-1.8l-10.4-10.4c-.5-.6-1.2-.8-1.9-.8z"/><path class="st2" d="M806.3 129.3c-.2 0-.3-.1-.5-.2-.1-.1-.3-.2-.4-.4l-8.1-12.3c-.2-.3-.3-.6-.2-1 .1-.3.3-.6.6-.8l7.2-4.8c.1-.1.3-.2.5-.2h.5c.2 0 .3.1.5.2.1.1.3.2.4.4l8.1 12.3c.2.3.3.6.2 1-.1.3-.3.6-.6.8l-7.2 4.8c-.1.1-.3.2-.5.2s-.4.1-.5 0z"/><path class="st3" d="M805.7 111l8.1 12.3-7.2 4.8-8.1-12.3 7.2-4.8zm.5-2.6c-.7-.1-1.4 0-2 .4l-7.2 4.8c-.3.2-.5.4-.7.7-.2.3-.3.6-.4.9-.1.3-.1.7 0 1 .1.3.2.7.4.9l8.1 12.3c.2.3.4.5.7.7.3.2.6.3.9.4.3.1.7.1 1 0 .3-.1.7-.2.9-.4l7.2-4.8c.3-.2.5-.4.7-.7.2-.3.3-.6.4-.9.1-.3.1-.7 0-1-.1-.3-.2-.7-.4-.9l-8.1-12.3c-.2-.6-.8-1-1.5-1.1z"/><path class="st2" d="M636.7 28.2c0 .3-.1.7-.3 1l-9.1 11.6c-.2.3-.5.4-.9.5-.3 0-.7-.1-1-.3l-6.8-5.3c-.3-.2-.4-.5-.5-.9 0-.3.1-.7.3-1l9.1-11.6c.2-.3.5-.4.9-.5.3 0 .7.1 1 .3l6.8 5.4c.3.1.5.4.5.8z"/><path class="st3" d="M619.5 34.5l9.1-11.6 6.8 5.4-9.1 11.6-6.8-5.4zm-2.6.4c.1.7.4 1.3 1 1.7l6.8 5.4c.3.2.6.4.9.5.3.1.7.1 1 .1.3 0 .7-.1 1-.3.3-.2.6-.4.8-.7l9.1-11.6c.2-.3.4-.6.5-.9s.1-.7.1-1c0-.3-.1-.7-.3-1s-.4-.6-.7-.8l-6.8-5.4c-.3-.2-.6-.4-.9-.5-.3-.1-.7-.1-1-.1-.3 0-.7.1-1 .3-.3.2-.6.4-.8.7l-9.1 11.6c-.4.6-.6 1.3-.6 2z"/><path class="st4" d="M799.5 171.6c-.2-.1-.3-.1-.4-.3-.1-.1-.2-.3-.3-.4l-3.7-7.9c-.1-.2-.1-.3-.1-.5s0-.3.1-.5.1-.3.3-.4c.1-.1.3-.2.4-.3l13.4-6.2c.3-.1.7-.2 1 0 .2.1.3.1.4.3.1.1.2.3.3.4l3.7 7.9c.1.2.1.3.1.5s0 .3-.1.5-.1.3-.3.4c-.1.1-.3.2-.4.3l-13.4 6.2c-.2.1-.3.1-.5.1-.1 0-.3-.1-.5-.1z"/><path class="st3" d="M809.7 156.3l3.7 7.9-13.4 6.2-3.7-7.9 13.4-6.2zm.8-2.5c-.3-.1-.7-.2-1-.2-.3 0-.7.1-1 .2l-13.4 6.2c-.3.1-.6.4-.8.6-.2.3-.4.5-.5.9-.1.3-.2.7-.2 1 0 .3.1.7.2 1l3.7 7.9c.1.3.3.6.6.8.3.2.5.4.9.5.3.1.7.2 1 .2.3 0 .7-.1 1-.2l13.4-6.2c.3-.1.6-.3.8-.6.2-.3.4-.5.5-.9.1-.3.2-.7.2-1 0-.3-.1-.7-.2-1l-3.7-7.9c-.3-.6-.8-1-1.5-1.3z"/><path class="st6" d="M773.2 75.2c-.2 0-.3-.1-.4-.2-.1-.1-.2-.2-.3-.4l-4.2-7.6c-.1-.2-.1-.3-.2-.5V66c0-.2.1-.3.2-.4.1-.1.2-.2.4-.3l12.9-7.1c.3-.2.7-.2 1-.1.2 0 .3.1.4.2.1.1.2.2.3.4l4.2 7.6c.2.3.2.7.1 1-.1.3-.3.6-.6.8l-12.9 7.1c-.2.1-.3.1-.5.2-.1-.2-.3-.2-.4-.2z"/><path class="st3" d="M782.3 59.2l4.2 7.6-12.9 7.1-4.2-7.6 12.9-7.1zm.7-2.5c-.7-.2-1.4-.1-2 .2L768.1 64c-.6.3-1.1.9-1.2 1.6-.2.7-.1 1.4.2 2l4.2 7.6c.2.3.4.6.7.8.3.2.6.4.9.5.7.2 1.4.1 2-.2l12.9-7.1c.3-.2.6-.4.8-.7.2-.3.4-.6.5-.9.1-.3.1-.7.1-1 0-.3-.1-.7-.3-1l-4.2-7.6c-.2-.3-.4-.6-.7-.8-.3-.2-.6-.4-1-.5z"/><path class="st6" d="M898.5 30.5c-.2 0-.3-.1-.4-.2-.1-.1-.2-.2-.3-.4l-4.2-7.6c-.1-.2-.1-.3-.2-.5v-.5c0-.2.1-.3.2-.4.1-.1.2-.2.4-.3l12.9-7.1c.3-.2.7-.2 1-.1.2 0 .3.1.5.2.1.1.2.2.3.4l4.2 7.6c.2.3.2.7.1 1-.1.3-.3.6-.6.8l-12.9 7.1c-.2.1-.3.1-.5.2-.2-.1-.3-.2-.5-.2z"/><path class="st3" d="M907.6 14.5l4.2 7.6-12.9 7.1-4.2-7.6 12.9-7.1zm.7-2.5c-.7-.2-1.4-.1-2 .2l-12.9 7.1c-.6.3-1.1.9-1.2 1.6-.2.7-.1 1.4.2 2l4.2 7.6c.2.3.4.6.7.8.3.2.6.4.9.5.7.2 1.4.1 2-.2l12.9-7.1c.3-.2.6-.4.8-.7.2-.3.4-.6.5-.9.1-.3.1-.7.1-1 0-.3-.1-.7-.3-1l-4.2-7.6c-.2-.3-.4-.6-.7-.8-.3-.2-.6-.4-1-.5z"/><path class="st5" d="M721.9 91.5c-.2.1-.3.1-.5.1s-.3-.1-.5-.1l-7.9-3.7c-.2-.1-.3-.2-.4-.3-.1-.1-.2-.3-.3-.4-.1-.2-.1-.3-.1-.5s.1-.3.1-.5l6.3-13.3c.1-.2.2-.3.3-.4.1-.1.3-.2.4-.3s.3-.1.5-.1.3.1.5.1l7.8 3.7c.2.1.3.2.4.3.1.1.2.3.3.4.1.2.1.3.1.5s-.1.3-.1.5l-6.3 13.3c0 .3-.3.6-.6.7z"/><path class="st3" d="M719.9 73.2l7.8 3.7-6.3 13.3-7.8-3.7 6.3-13.3zm-.8-2.4c-.3.1-.6.3-.9.5-.3.2-.5.5-.6.8l-6.3 13.4c-.1.3-.2.6-.2 1 0 .3 0 .7.1 1 .1.3.3.6.5.9.2.3.5.5.8.6l7.8 3.7c.3.1.6.2 1 .2.3 0 .7 0 1-.1.3-.1.6-.3.9-.5.3-.2.5-.5.6-.8l6.3-13.3c.1-.3.2-.6.2-1 0-.3 0-.7-.1-1-.1-.3-.3-.6-.5-.9-.2-.3-.5-.5-.8-.6l-7.8-3.7c-.3-.1-.6-.2-1-.2-.4-.2-.7-.1-1 0z"/></g></svg>