<?xml version="1.0" encoding="utf-8"?>
<!-- Generator: Adobe Illustrator 25.0.0, SVG Export Plug-In . SVG Version: 6.00 Build 0)  -->
<svg version="1.1" id="kite" xmlns="http://www.w3.org/2000/svg" xmlns:xlink="http://www.w3.org/1999/xlink" x="0px" y="0px"
	 viewBox="0 0 1080.5 1098.1" style="enable-background:new 0 0 1080.5 1098.1;" xml:space="preserve">
<style type="text/css">
	.st0{fill:#6ADAF7;}
	.st1{fill:#37C0EF;}
	.st2{fill:#FFFFFF;}
	.st3{fill:#515979;}
	.st4{fill:#D9EBFA;}
	.st5{fill:#ECE6E3;}
	.st6{fill:#9E8271;}
	.st7{fill:#BBA89C;}
	.st8{fill:#FEE7C5;}
	.st9{fill:#FFF7EC;}
</style>
<g>
	<path class="st0" d="M468.3,837.8c-40.5,0-84.7-19.1-131.4-56.7c-30.5-24.5-60.7-37-89.7-37c-5.5,0-11.1,0.5-16.5,1.3
		c-60.2,9.8-100,70.1-100.4,70.7c-2.3,3.5-6.1,5.5-10.2,5.5c-0.8,0-1.6-0.1-2.3-0.2c-4.9-1-8.6-4.8-9.5-9.6l-1.7-9.4l-8.8,2.4
		c-1.1,0.3-2.1,0.4-3.2,0.4c-3.8,0-7.4-1.8-9.7-4.9c-3-4-3.1-9.5-0.4-13.7c2.1-3.3,53-81.4,137.6-95.2c8.5-1.4,17.1-2.1,25.6-2.1
		c41.6,0,83.3,16.5,123.7,49.1c40.6,32.7,80.4,51.4,109.2,51.4c5.7,0,11-0.7,15.8-2.1c38.6-11.5,58.6-56.8,63.3-68.8
		c0.2-1.9,0.4-2.9,0.8-4.2c1.4-4.5,5.3-7.7,10-8.3c0.5-0.1,1-0.1,1.6-0.1c4.1,0,8,2.1,10.2,5.6l0.5,0.8c1.9,3,2.4,6.8,1.3,10.2
		c0,0.1-0.2,0.7-0.7,1.9c-7.4,56.4-35.4,94.6-78.9,107.7c-8.2,2.5-16.7,4.1-25.3,4.8C475.4,837.7,471.9,837.8,468.3,837.8z"/>
	<path class="st1" d="M520.4,789.7c4.3,4.6,9.4,8.5,15,11.5c28.7-26.7,34.3-67.2,35.8-79.2C567.4,732.3,551.6,769.7,520.4,789.7z"/>
	<path class="st2" d="M565.4,735c0,0,227.6-160.5,362.5-311.8C845.2,224.6,753.7,79.8,753.7,79.8S602,185.2,412.8,294.5
		C483.1,448.6,565.4,735,565.4,735z"/>
	<path class="st3" d="M820,41.6c-6.7,0-12.1-5.4-12.1-12.1c0-2.2-1.8-4-4-4c-2.2,0-4,1.8-4,4c0,6.7-5.4,12.1-12.1,12.1
		c-2.2,0-4,1.8-4,4c0,2.2,1.8,4,4,4c6.7,0,12.1,5.4,12.1,12.1c0,2.2,1.8,4,4,4c2.2,0,4-1.8,4-4c0-6.7,5.4-12.1,12.1-12.1
		c2.2,0,4-1.8,4-4C824,43.4,822.2,41.6,820,41.6z"/>
	<path class="st3" d="M985.7,386.7c-6,0-10.9-4.9-10.9-10.9c0-2-1.6-3.6-3.6-3.6c-2,0-3.6,1.6-3.6,3.6c0,6-4.9,10.9-10.9,10.9
		c-2,0-3.6,1.6-3.6,3.6s1.6,3.6,3.6,3.6c6,0,10.9,4.9,10.9,10.9c0,2,1.6,3.6,3.6,3.6c2,0,3.6-1.6,3.6-3.6c0-6,4.9-10.9,10.9-10.9
		c2,0,3.6-1.6,3.6-3.6S987.7,386.7,985.7,386.7z"/>
	<path class="st2" d="M565.4,735c0,0,227.6-160.5,362.5-311.8C845.2,224.6,753.7,79.8,753.7,79.8S602,185.2,412.8,294.5
		C483.1,448.6,565.4,735,565.4,735z"/>
	<path class="st4" d="M753.7,90.7c0,0-140.9,96.6-330,206C494,450.7,571.9,719.8,571.9,719.8s-43.1-256-113.4-410.1
		C647.6,200.4,753.7,90.7,753.7,90.7z"/>
	<path class="st3" d="M939,418.6C856.9,221.3,764.9,74.8,763.9,73.4c-1.8-2.8-4.6-4.7-7.8-5.4c-3.2-0.6-6.6,0-9.3,1.9
		C745.3,71,593.3,176.2,406.8,284c-5.4,3.1-7.5,9.8-4.9,15.5c58,127,125,347.5,145.6,417.1c-2.6,6.5-7.9,17.9-16.3,29.5
		c-11.5,15.8-24.4,26-38.4,30.2c-3.6,1.1-7.8,1.6-12.3,1.6c-26.1,0-63.2-17.8-101.6-48.7c-42.6-34.3-86.8-51.8-131.3-51.8
		c-9.2,0-18.5,0.8-27.6,2.2C130,694.3,76.3,776.7,74.1,780.2c-5.4,8.4-5,19.3,0.9,27.4c4.6,6.3,11.9,9.9,19.5,9.9
		c0.9,0,1.8,0,2.7-0.1c2.7,8.2,9.7,14.4,18.3,16.1c1.5,0.3,3.1,0.4,4.6,0.4c8.1,0,15.9-4.1,20.4-11.1c0.3-0.4,37.4-56.4,92.1-65.3
		c4.8-0.8,9.7-1.2,14.6-1.2c26.3,0,53.9,11.5,82.2,34.3c48.9,39.4,95.7,59.4,139,59.4c3.9,0,7.7-0.2,11.5-0.5
		c9.4-0.8,18.7-2.5,27.7-5.3c47.8-14.4,78.6-55.4,87.1-115.6c61-44.7,232.7-174.7,342.1-297.4C940,427.8,940.8,422.9,939,418.6z
		 M500.6,821c-7.4,2.2-15,3.7-22.8,4.3c-3.2,0.3-6.3,0.4-9.5,0.4c-37.7,0-79.2-18.1-123.8-54c-32.7-26.4-65.4-39.7-97.3-39.7
		c-6.2,0-12.4,0.5-18.5,1.5c-66.1,10.8-108.2,75.5-108.6,76.1l-4.1-22.3l-21.5,5.9c2-3.1,50-76.8,129.3-89.8
		c7.9-1.3,15.8-1.9,23.7-1.9c38.9,0,77.8,15.6,116.1,46.4c41.1,33.1,83.3,54.1,116.8,54.1c6.8,0,13.2-0.9,19.2-2.7
		c29.5-8.8,49.1-33.9,60.4-53.7c0.4,0.2,0.9,0.5,1.3,0.7c1.3,0.5,2.7,0.7,4,0.7c0.3,0,0.7,0,1-0.1
		C559.3,772.8,542.4,808.5,500.6,821z M589.7,702.4c-6.8,5.1-12.7,9.4-17.5,12.8c-1.6-5.5-3.6-12.3-6-20.1
		c-24-80.3-84-274.2-137.9-395.6C583.4,209.4,713.1,122.2,750.1,97c22.1,36.4,95.8,162.3,163.7,323.8
		C810.8,534.5,655.5,653.7,589.7,702.4z"/>
	<path class="st3" d="M788.9,340.2c-17.6-3.6-34.8,7.8-38.4,25.5c-2.2,10.8,1.2,21.4,8.3,28.9c-2.9,0.6-5.8,1.5-8.4,2.7
		c-4.1,1.8-5.8,6.6-4,10.7c1.8,4.1,6.6,5.8,10.7,4c10.4-4.7,25.6-1.6,33.3,6.8c1.6,1.7,3.8,2.6,5.9,2.6c1.9,0,3.9-0.7,5.5-2.1
		c3.3-3,3.5-8.1,0.5-11.4c-2-2.2-4.3-4.1-6.7-5.8c9.4-4.1,16.7-12.6,18.9-23.4C818,361,806.6,343.8,788.9,340.2z M795.5,373.2
		c-0.9,4.4-5.2,7.3-9.6,6.4c-4.4-0.9-7.3-5.2-6.4-9.6c0.9-4.4,5.2-7.3,9.6-6.4C793.6,364.5,796.4,368.8,795.5,373.2z"/>
	<path class="st3" d="M650.5,314.7c-17.6-3.6-34.8,7.8-38.4,25.5c-2.2,10.8,1.2,21.4,8.3,28.9c-2.9,0.6-5.8,1.5-8.4,2.7
		c-4.1,1.8-5.8,6.6-4,10.7c1.8,4.1,6.6,5.8,10.7,4c10.4-4.7,25.6-1.6,33.3,6.8c1.6,1.7,3.8,2.6,5.9,2.6c1.9,0,3.9-0.7,5.5-2.1
		c3.3-3,3.5-8.1,0.5-11.4c-2-2.2-4.3-4.1-6.7-5.8c9.4-4.1,16.7-12.6,18.9-23.4C679.5,335.5,668.1,318.3,650.5,314.7z M657.1,347.7
		c-0.9,4.4-5.2,7.3-9.6,6.4c-4.4-0.9-7.3-5.2-6.4-9.6c0.9-4.4,5.2-7.3,9.6-6.4C655.1,339,658,343.3,657.1,347.7z"/>
	<path class="st3" d="M664,283c-1.5,0.1-3.7-0.4-5.6-0.4c-1.9-0.2-3.8-0.3-5.6-0.4c-3.6-0.1-6.9,0.1-10,0.6
		c-3.1,0.6-6.2,1.2-9.4,2.5c-1.7,0.5-3.3,1.3-5.1,2c-1.8,0.7-3.5,1.8-5.7,2.5l-2,0.6c-4.3,1.4-8.9-1.1-10.3-5.4
		c-0.7-2.2-0.4-4.4,0.6-6.3c1.3-2.5,2.8-4.9,4.7-7.1c2-2.1,4-4.3,6.6-5.9c4.8-3.6,10.9-5.9,17.1-6.8c6.2-0.9,12.4-0.4,18.1,1.4
		c2.8,0.9,5.5,2.1,8,3.5c1.2,0.8,2.5,1.5,3.6,2.4c1.2,0.9,2.2,1.8,3.6,3.1c3.1,2.9,3.3,7.8,0.4,10.9c-1.4,1.5-3.2,2.3-5,2.4L664,283
		z"/>
	<path class="st3" d="M784.4,290.4c1.8-0.6,3-1,4.5-1.4c1.4-0.4,2.9-0.5,4.3-0.7c2.9-0.3,5.8-0.3,8.8,0c5.9,0.7,11.8,2.7,17.1,6
		c5.2,3.3,9.9,7.8,12.9,13.1c1.7,2.5,2.6,5.4,3.6,8.1c0.8,2.8,1.2,5.6,1.4,8.4c0.3,4.5-3.1,8.4-7.7,8.7c-2.3,0.1-4.4-0.6-5.9-2
		l-1.6-1.4c-1.7-1.5-2.8-3.2-4.2-4.5c-1.4-1.3-2.5-2.8-3.8-3.9c-2.4-2.5-5-4.3-7.6-6.1c-2.7-1.8-5.6-3.3-8.9-4.6
		c-1.7-0.6-3.4-1.4-5.2-1.9c-1.7-0.7-3.9-1.1-5.3-1.8l-3.5-1.9c-3.7-2-5.2-6.7-3.1-10.4C781.1,292.2,782.6,291,784.4,290.4z"/>
	<path class="st3" d="M714,494.6c-3.8,2.9-8.3,4.6-12.8,5.4c-4.5,0.9-9.2,0.9-13.7,0.2c-4.5-0.8-8.9-2.2-13-4.4
		c-4-2.2-7.8-5.2-10.5-9.1c-1.9-2.8-1.3-6.6,1.5-8.5c2-1.4,4.6-1.4,6.6-0.3l0.5,0.3c5.4,3.1,11.2,5.2,17.4,6.2
		c6.2,1,12.4,0.8,18.5-0.5l0.5-0.1c3.3-0.7,6.6,1.5,7.2,4.8C716.8,490.9,715.8,493.2,714,494.6z"/>
	<g>
		<path class="st3" d="M711.5,466.6c-29.1,0-59-11.4-81.9-33c-3.2-3.1-3.4-8.2-0.3-11.4c3.1-3.2,8.2-3.4,11.4-0.3
			c30.7,28.9,77.5,36.8,111.4,18.8c3.9-2.1,8.8-0.6,10.9,3.3c2.1,3.9,0.6,8.8-3.3,10.9C744.8,462.8,728.3,466.6,711.5,466.6z"/>
	</g>
	<circle class="st3" cx="59" cy="869.6" r="8.1"/>
	<circle class="st3" cx="192" cy="656" r="6"/>
	<circle class="st3" cx="159.8" cy="668.1" r="8.1"/>
	<circle class="st3" cx="952.9" cy="455.4" r="5"/>
	<circle class="st3" cx="740.3" cy="19" r="6"/>
	<circle class="st3" cx="373.4" cy="349.6" r="6"/>
	<circle class="st3" cx="377.5" cy="256.9" r="8.1"/>
	<path class="st3" d="M363.6,298.8c-8,0-14.5-6.5-14.5-14.5c0-2.7-2.2-4.8-4.8-4.8c-2.7,0-4.8,2.2-4.8,4.8c0,8-6.5,14.5-14.5,14.5
		c-2.7,0-4.8,2.2-4.8,4.8s2.2,4.8,4.8,4.8c8,0,14.5,6.5,14.5,14.5c0,2.7,2.2,4.8,4.8,4.8c2.7,0,4.8-2.2,4.8-4.8
		c0-8,6.5-14.5,14.5-14.5c2.7,0,4.8-2.2,4.8-4.8S366.3,298.8,363.6,298.8z"/>
	<path class="st3" d="M260.8,799.4c-5.3,0-9.7-4.3-9.7-9.7c0-1.8-1.4-3.2-3.2-3.2c-1.8,0-3.2,1.4-3.2,3.2c0,5.3-4.3,9.7-9.7,9.7
		c-1.8,0-3.2,1.4-3.2,3.2s1.4,3.2,3.2,3.2c5.3,0,9.7,4.3,9.7,9.7c0,1.8,1.4,3.2,3.2,3.2c1.8,0,3.2-1.4,3.2-3.2
		c0-5.3,4.3-9.7,9.7-9.7c1.8,0,3.2-1.4,3.2-3.2S262.5,799.4,260.8,799.4z"/>
	<path class="st3" d="M53.5,745.4c-8,0-14.5-6.5-14.5-14.5c0-2.7-2.2-4.8-4.8-4.8c-2.7,0-4.8,2.2-4.8,4.8c0,8-6.5,14.5-14.5,14.5
		c-2.7,0-4.8,2.2-4.8,4.8c0,2.7,2.2,4.8,4.8,4.8c8,0,14.5,6.5,14.5,14.5c0,2.7,2.2,4.8,4.8,4.8c2.7,0,4.8-2.2,4.8-4.8
		c0-8,6.5-14.5,14.5-14.5c2.7,0,4.8-2.2,4.8-4.8C58.4,747.5,56.2,745.4,53.5,745.4z"/>
</g>
<g>
	<g>
		<g>
			<path class="st2" d="M875.7,1076.8c-3.3,0-6.1-2.6-6.3-5.9l-14.7-210c-0.1-1.7,0.5-3.5,1.7-4.7c1.2-1.3,2.9-2,4.6-2h168
				c1.7,0,3.4,0.7,4.6,2c1.2,1.3,1.8,3,1.7,4.7l-14.7,210c-0.2,3.3-3,5.9-6.3,5.9H875.7z"/>
		</g>
		<g>
			<path class="st3" d="M1029,860.5l-14.7,210H875.7l-14.7-210H1029 M1029,847.9h-168c-3.5,0-6.8,1.5-9.2,4c-2.4,2.6-3.6,6-3.4,9.5
				l14.7,210c0.5,6.6,6,11.7,12.6,11.7h138.6c6.6,0,12.1-5.1,12.6-11.7l14.7-210c0.2-3.5-1-6.9-3.4-9.5
				C1035.8,849.4,1032.5,847.9,1029,847.9L1029,847.9z M1029,873.1L1029,873.1L1029,873.1L1029,873.1z"/>
		</g>
	</g>
	<g>
		<g>
			<polygon class="st5" points="1029,860.5 861.1,860.5 861.9,873.1 1028.1,873.1 			"/>
		</g>
	</g>
	<g>
		<g>
			<polygon class="st5" points="870.8,999.1 873.7,1041.1 1016.4,1041.1 1019.3,999.1 			"/>
		</g>
	</g>
	<g>
		<g>
			<path class="st6" d="M854.8,833.2c-2,0-3.9-0.9-5.1-2.6c-1.2-1.6-1.5-3.7-1-5.6l16.8-54.6c0.8-2.6,3.3-4.4,6-4.4h147
				c2.8,0,5.2,1.8,6,4.4l16.8,54.6c0.6,1.9,0.2,4-1,5.6c-1.2,1.6-3.1,2.6-5.1,2.6H854.8z"/>
		</g>
		<g>
			<g>
				<path class="st3" d="M1018.5,772.4l16.8,54.6H854.8l16.8-54.6H1018.5 M1018.5,759.8h-147c-5.5,0-10.4,3.6-12,8.9l-16.8,54.6
					c-1.2,3.8-0.5,8,1.9,11.2c2.4,3.2,6.1,5.1,10.1,5.1h180.6c4,0,7.8-1.9,10.1-5.1c2.4-3.2,3.1-7.4,1.9-11.2l-16.8-54.6
					C1028.9,763.4,1024,759.8,1018.5,759.8L1018.5,759.8z"/>
			</g>
		</g>
	</g>
	<g>
		<g>
			<polygon class="st7" points="1018.5,772.4 871.5,772.4 868.3,782.9 1021.7,782.9 			"/>
		</g>
	</g>
	<g>
		<g>
			<path class="st6" d="M842.2,854.2c-1.9,0-3.7-0.8-4.9-2.3c-1.2-1.5-1.7-3.4-1.3-5.2l4.2-21c0.6-2.9,3.2-5.1,6.2-5.1h197.4
				c3,0,5.6,2.1,6.2,5.1l4.2,21c0.4,1.9-0.1,3.8-1.3,5.2c-1.2,1.5-3,2.3-4.9,2.3H842.2z"/>
		</g>
		<g>
			<g>
				<path class="st3" d="M1043.7,826.9l4.2,21H842.2l4.2-21H1043.7 M1043.7,814.3H846.4c-6,0-11.2,4.2-12.4,10.1l-4.2,21
					c-0.7,3.7,0.2,7.5,2.6,10.5c2.4,2.9,6,4.6,9.7,4.6h205.8c3.8,0,7.3-1.7,9.7-4.6c2.4-2.9,3.4-6.8,2.6-10.5l-4.2-21
					C1054.9,818.6,1049.7,814.3,1043.7,814.3L1043.7,814.3z"/>
			</g>
		</g>
	</g>
	<g>
		<g>
			<path class="st8" d="M859.3,1022.2c-3.3,0-6.1-2.6-6.3-5.9l-8.2-117.6c-0.1-1.7,0.5-3.5,1.7-4.7c1.2-1.3,2.9-2,4.6-2H1039
				c1.7,0,3.4,0.7,4.6,2c1.2,1.3,1.8,3,1.7,4.7l-8.2,117.6c-0.2,3.3-3,5.9-6.3,5.9H859.3z"/>
		</g>
		<g>
			<path class="st3" d="M1039,898.3L1039,898.3 M1039,898.3l-8.2,117.6H859.3l-8.2-117.6H1039 M1039,885.7L1039,885.7H851.1
				c-3.5,0-6.8,1.5-9.2,4c-2.4,2.6-3.6,6-3.4,9.5l8.2,117.6c0.5,6.6,6,11.7,12.6,11.7h171.4c6.6,0,12.1-5.1,12.6-11.7l8.2-117.2
				c0-0.4,0.1-0.8,0.1-1.3C1051.6,891.4,1045.9,885.7,1039,885.7L1039,885.7z M1039,910.9L1039,910.9L1039,910.9L1039,910.9z"/>
		</g>
	</g>
	<g>
		<g>
			<polygon class="st9" points="1039,898.3 851.1,898.3 852,910.9 1038.1,910.9 			"/>
		</g>
	</g>
	<g>
		<g>
			<g>
				<path class="st3" d="M986,964.7c-0.7,0-1.3-0.2-2-0.5c-4-2.1-10.9-2.1-14.9,0c-2,1.1-4.6,0.3-5.7-1.7c-1.1-2-0.3-4.6,1.7-5.7
					c6.4-3.4,16.5-3.4,22.9,0c2,1.1,2.8,3.6,1.7,5.7C988.9,963.9,987.5,964.7,986,964.7z"/>
			</g>
			<g>
				<g>
					<circle class="st3" cx="976.5" cy="944.2" r="14.7"/>
				</g>
				<g>
					<circle class="st2" cx="980.2" cy="944.2" r="3.7"/>
				</g>
			</g>
			<g>
				<path class="st3" d="M966.1,912.7c1.3-1.1,2.3-1.9,3.6-2.6c1.2-0.7,2.6-1.2,4-1.7c2.8-0.9,5.8-1.2,9-0.8
					c3.1,0.3,6.3,1.5,8.8,3.4c2.6,1.8,4.5,4.4,5.6,7.1c0.9,2.2-0.1,4.7-2.3,5.6c-1.1,0.5-2.3,0.4-3.3,0l-1-0.4c-2-0.8-3.4-1.7-5-2.2
					c-1.5-0.5-2.9-0.9-4.5-1.1c-1.6-0.2-3.3-0.3-5.1-0.3c-0.9,0-1.9,0-2.9,0.1c-1,0-2.1,0.2-2.9,0.1l-1.6-0.2
					c-2.3-0.2-3.9-2.3-3.7-4.5C964.8,914.3,965.3,913.3,966.1,912.7z"/>
			</g>
			<g>
				<path class="st3" d="M904.1,964.7c-1.5,0-2.9-0.8-3.7-2.2c-1.1-2-0.3-4.6,1.7-5.7c6.4-3.4,16.5-3.4,22.9,0
					c2,1.1,2.8,3.6,1.7,5.7c-1.1,2-3.6,2.8-5.7,1.7c-4-2.1-10.9-2.1-14.9,0C905.4,964.5,904.8,964.7,904.1,964.7z"/>
			</g>
			<g>
				<g>
					<circle class="st3" cx="913.5" cy="944.2" r="14.7"/>
				</g>
				<g>
					<circle class="st2" cx="917.2" cy="944.2" r="3.7"/>
				</g>
			</g>
			<g>
				<path class="st3" d="M920,920.1c-0.8,0.1-2-0.1-2.9-0.1c-1-0.1-2-0.1-2.9-0.1c-1.9,0-3.6,0-5.1,0.3c-1.6,0.2-3,0.6-4.5,1.1
					c-1.5,0.4-3,1.3-5,2.2l-0.9,0.4c-2.2,0.9-4.7-0.1-5.6-2.3c-0.5-1.1-0.4-2.3,0-3.3c1.1-2.7,3-5.3,5.6-7.1
					c2.5-1.9,5.7-3.1,8.8-3.4c3.1-0.4,6.2,0,9,0.8c1.4,0.4,2.7,1,4,1.7c1.3,0.7,2.3,1.4,3.6,2.6c1.7,1.5,1.9,4.1,0.3,5.9
					c-0.7,0.8-1.7,1.3-2.7,1.4L920,920.1z"/>
			</g>
		</g>
		<g>
			<path class="st3" d="M945.8,986.2c-11.1,0-22.5-3-32.3-9c-2-1.2-2.6-3.8-1.4-5.8c1.2-2,3.8-2.6,5.8-1.4
				c16.8,10.2,39.6,10.2,54.2,0.1c1.9-1.3,4.5-0.9,5.8,1c1.3,1.9,0.9,4.5-1,5.8C968,983.2,957.1,986.2,945.8,986.2z"/>
		</g>
		<g>
			<path class="st3" d="M936.3,992.8c2.8,0.9,5.8,1.2,8.8,1.3c1.5,0.1,3-0.1,4.4-0.3c1.5-0.2,2.9-0.5,4.3-1c1.5-0.5,3,0.3,3.5,1.7
				c0.3,1,0.1,2.1-0.6,2.8l-1.5,1.6c-1.4,1.5-3.1,2.3-4.8,2.9c-1.7,0.5-3.5,0.8-5.3,0.7c-0.9,0-1.8-0.1-2.7-0.3
				c-0.9-0.1-1.8-0.4-2.6-0.6c-1.7-0.6-3.4-1.4-4.8-2.6l-1.4-1.2c-1.2-1-1.3-2.9-0.3-4.1C934,992.7,935.2,992.4,936.3,992.8z"/>
		</g>
	</g>
	<g>
		<path class="st3" d="M970.2,753.9c-3.5,0-6.3-2.8-6.3-6.3c0-8.7,4.8-13.2,8.3-16.5c3-2.9,4.3-4.3,4.3-7.4c0-3.1-1.3-4.5-4.3-7.4
			c-3.5-3.3-8.3-7.8-8.3-16.5c0-8.7,4.8-13.2,8.3-16.5c3-2.9,4.3-4.3,4.3-7.4c0-3.5,2.8-6.3,6.3-6.3c3.5,0,6.3,2.8,6.3,6.3
			c0,8.7-4.8,13.2-8.3,16.5c-3,2.9-4.3,4.3-4.3,7.4c0,3.1,1.3,4.5,4.3,7.4c3.5,3.3,8.3,7.8,8.3,16.5c0,8.7-4.8,13.2-8.3,16.5
			c-3,2.9-4.3,4.3-4.3,7.4C976.5,751.1,973.7,753.9,970.2,753.9z"/>
	</g>
	<g>
		<path class="st3" d="M907.2,753.9c-3.5,0-6.3-2.8-6.3-6.3c0-8.7,4.8-13.2,8.3-16.5c3-2.9,4.3-4.3,4.3-7.4c0-3.1-1.3-4.5-4.3-7.4
			c-3.5-3.3-8.3-7.8-8.3-16.5c0-8.7,4.8-13.2,8.3-16.5c3-2.9,4.3-4.3,4.3-7.4c0-3.5,2.8-6.3,6.3-6.3s6.3,2.8,6.3,6.3
			c0,8.7-4.8,13.2-8.3,16.5c-3,2.9-4.3,4.3-4.3,7.4c0,3.1,1.3,4.5,4.3,7.4c3.5,3.3,8.3,7.8,8.3,16.5c0,8.7-4.8,13.2-8.3,16.5
			c-3,2.9-4.3,4.3-4.3,7.4C913.5,751.1,910.7,753.9,907.2,753.9z"/>
	</g>
	<g>
		<path class="st3" d="M938.7,741.3c-3.5,0-6.3-2.8-6.3-6.3c0-8.7,4.8-13.2,8.3-16.5c3-2.9,4.3-4.3,4.3-7.4c0-3.1-1.3-4.5-4.3-7.4
			c-3.5-3.3-8.3-7.8-8.3-16.5s4.8-13.2,8.3-16.5c3-2.9,4.3-4.3,4.3-7.4c0-3.5,2.8-6.3,6.3-6.3c3.5,0,6.3,2.8,6.3,6.3
			c0,8.7-4.8,13.2-8.3,16.5c-3,2.9-4.3,4.3-4.3,7.4s1.3,4.5,4.3,7.4c3.5,3.3,8.3,7.8,8.3,16.5c0,8.7-4.8,13.2-8.3,16.5
			c-3,2.9-4.3,4.3-4.3,7.4C945,738.5,942.2,741.3,938.7,741.3z"/>
	</g>
</g>
</svg>
