<svg version="1.1" id="Layer_1" xmlns="http://www.w3.org/2000/svg" xmlns:xlink="http://www.w3.org/1999/xlink" x="0" y="0" viewBox="0 0 124 124" xml:space="preserve"><style>.st1{fill:#515a78}.st3{fill:#f7fbfc}.st4{opacity:.1}.st5{fill:#231f20}.st6{fill:#9e8271}.st7{clip-path:url(#SVGID_2_)}.st8{fill:#7ddf96}</style><circle cx="62.5" cy="61.6" r="55.5" fill="#c3deff"/><path class="st1" d="M62.5 8.9c29.1 0 52.7 23.6 52.7 52.7s-23.6 52.7-52.7 52.7S9.8 90.7 9.8 61.6 33.4 8.9 62.5 8.9m0-5.6C30.3 3.3 4.1 29.5 4.1 61.6S30.3 120 62.5 120s58.3-26.2 58.3-58.3S94.6 3.3 62.5 3.3z"/><path d="M62.5 77.7c-.3 0-.7-.1-1-.2-.7-.3-16.9-6.4-16.9-19.6 0-9.3 7.6-19.8 17.9-19.8 10.2 0 17.9 10.4 17.9 19.8 0 13.2-16.2 19.3-16.9 19.6-.4.1-.7.2-1 .2z" fill="#fbb040"/><path class="st1" d="M62.5 41c8.3 0 15.1 8.6 15.1 16.9 0 11.4-15.1 16.9-15.1 16.9s-15.1-5.5-15.1-16.9c0-8.3 6.7-16.9 15.1-16.9m0-5.7c-5.5 0-11 2.7-14.9 7.3-3.7 4.3-5.8 9.9-5.8 15.3 0 15.2 18 22 18.8 22.2.6.2 1.3.3 1.9.3.7 0 1.3-.1 1.9-.3.8-.3 18.8-7.1 18.8-22.2 0-5.4-2.1-11-5.8-15.3-4-4.6-9.4-7.3-14.9-7.3z"/><path class="st3" d="M107.5 49.4c-.4 0-.8.1-1.2.2-.7-2.3-2.8-3.9-5.3-3.9s-4.6 1.7-5.3 3.9c-.4-.1-.8-.2-1.2-.2-2.1 0-3.7 1.7-3.7 3.7 0 2.1 1.7 3.7 3.7 3.7h13c2.1 0 3.7-1.7 3.7-3.7 0-2.1-1.7-3.7-3.7-3.7zM30.3 49.4c-.4 0-.8.1-1.2.2-.7-2.3-2.8-3.9-5.3-3.9s-4.6 1.7-5.3 3.9c-.4-.1-.8-.2-1.2-.2-2.1 0-3.7 1.7-3.7 3.7 0 2.1 1.7 3.7 3.7 3.7h13c2.1 0 3.7-1.7 3.7-3.7 0-2.1-1.7-3.7-3.7-3.7zM62.3 17.4c-.4 0-.8.1-1.2.2-.7-2.3-2.8-3.9-5.3-3.9s-4.6 1.7-5.3 3.9c-.4-.1-.8-.2-1.2-.2-2.1 0-3.7 1.7-3.7 3.7 0 2.1 1.7 3.7 3.7 3.7h13c2.1 0 3.7-1.7 3.7-3.7 0-2.1-1.7-3.7-3.7-3.7z"/><g class="st4"><path class="st5" d="M33.1 34.6c-1.6 0-2.9-1.3-2.9-2.9 0-.4-.3-.7-.7-.7-.4 0-.7.3-.7.7 0 1.6-1.3 2.9-2.9 2.9-.4 0-.7.3-.7.7 0 .4.3.7.7.7 1.6 0 2.9 1.3 2.9 2.9 0 .4.3.7.7.7.4 0 .7-.3.7-.7 0-1.6 1.3-2.9 2.9-2.9.4 0 .7-.3.7-.7 0-.4-.3-.7-.7-.7z"/></g><g class="st4"><path class="st5" d="M93.3 29.9c-1.6 0-2.9-1.3-2.9-2.9 0-.4-.3-.7-.7-.7-.4 0-.7.3-.7.7 0 1.6-1.3 2.9-2.9 2.9-.4 0-.7.3-.7.7 0 .4.3.7.7.7 1.6 0 2.9 1.3 2.9 2.9 0 .4.3.7.7.7.4 0 .7-.3.7-.7 0-1.6 1.3-2.9 2.9-2.9.4 0 .7-.3.7-.7 0-.4-.3-.7-.7-.7z"/></g><path class="st6" d="M61.5 38.1c-1.3 0-2.5-.9-2.8-2.2l-1.5-6.6v-.2c-.2-1.5.2-3 1.2-4.2 1-1.2 2.5-1.8 4-1.8s3 .7 4 1.8c1 1.2 1.5 2.7 1.2 4.2v.2l-1.5 6.6c-.3 1.3-1.4 2.2-2.8 2.2h-1.8z"/><path class="st1" d="M62.5 25.9c1.5 0 2.6 1.3 2.4 2.8l-1.5 6.6h-1.9L60 28.7c-.2-1.5 1-2.8 2.5-2.8m0-5.6c-2.3 0-4.6 1-6.1 2.8-1.5 1.8-2.2 4.1-1.9 6.4 0 .1 0 .3.1.4l1.5 6.6c.6 2.6 2.9 4.4 5.5 4.4h1.9c2.6 0 4.9-1.8 5.5-4.4l1.5-6.6c0-.1.1-.3.1-.4.3-2.3-.4-4.7-1.9-6.4-1.7-1.8-3.9-2.8-6.2-2.8z"/><path class="st6" d="M42.7 53.2c-1.6 0-2.8-1.3-2.8-2.8v-1.9c0-5.7 4.6-10.4 10.4-10.4h24.5c5.7 0 10.4 4.6 10.4 10.4v1.9c0 1.6-1.3 2.8-2.8 2.8H42.7z"/><path class="st1" d="M74.7 41c4.2 0 7.5 3.4 7.5 7.5v1.9H42.7v-1.9c0-4.2 3.4-7.5 7.5-7.5h24.5m0-5.7H50.2C43 35.3 37 41.2 37 48.5v1.9c0 3.1 2.5 5.6 5.6 5.6h39.5c3.1 0 5.6-2.5 5.6-5.6v-1.9c.2-7.3-5.7-13.2-13-13.2z"/><g><defs><circle id="SVGID_1_" cx="62.5" cy="61.6" r="52.7"/></defs><clipPath id="SVGID_2_"><use xlink:href="#SVGID_1_" overflow="visible"/></clipPath><g class="st7"><circle class="st8" cx="88.8" cy="87.1" r="13.2"/><path class="st1" d="M88.8 76.7c5.7 0 10.4 4.6 10.4 10.4s-4.6 10.4-10.4 10.4-10.4-4.6-10.4-10.4 4.7-10.4 10.4-10.4m0-5.6c-8.8 0-16 7.2-16 16s7.2 16 16 16 16-7.2 16-16-7.2-16-16-16z"/></g><g class="st7"><circle class="st8" cx="112.3" cy="79.5" r="16"/><path class="st1" d="M112.3 66.4c7.3 0 13.2 5.9 13.2 13.2 0 7.3-5.9 13.2-13.2 13.2-7.3 0-13.2-5.9-13.2-13.2.1-7.3 6-13.2 13.2-13.2m0-5.7c-10.4 0-18.8 8.4-18.8 18.8s8.4 18.8 18.8 18.8 18.8-8.4 18.8-18.8-8.4-18.8-18.8-18.8z"/></g><g class="st7"><circle class="st8" cx="36.1" cy="87.1" r="13.2"/><path class="st1" d="M36.1 76.7c5.7 0 10.4 4.6 10.4 10.4s-4.6 10.4-10.4 10.4-10.4-4.6-10.4-10.4 4.7-10.4 10.4-10.4m0-5.6c-8.8 0-16 7.2-16 16s7.2 16 16 16 16-7.2 16-16-7.2-16-16-16z"/></g><g class="st7"><circle class="st8" cx="12.6" cy="79.5" r="16"/><path class="st1" d="M12.6 66.4c7.3 0 13.2 5.9 13.2 13.2 0 7.3-5.9 13.2-13.2 13.2-7.3 0-13.2-5.9-13.2-13.2 0-7.3 5.9-13.2 13.2-13.2m0-5.7c-10.4 0-18.8 8.4-18.8 18.8s8.4 18.8 18.8 18.8 18.8-8.4 18.8-18.8S23 60.7 12.6 60.7z"/></g></g><g><path d="M62.5 117.2c-18.6 0-35.8-9.2-46.2-24.7-.6-.9-.6-2-.1-2.9.5-.9 1.4-1.5 2.5-1.5h87.6c1 0 2 .6 2.5 1.5s.4 2-.1 2.9c-10.4 15.4-27.7 24.7-46.2 24.7z" fill="#7bafd6"/><path class="st1" d="M106.3 90.9c-9.5 14.1-25.5 23.4-43.8 23.4-18.3 0-34.4-9.3-43.8-23.4h87.6m0-5.6H18.6c-2.1 0-4 1.1-5 3-1 1.8-.9 4.1.3 5.8 10.9 16.2 29 25.9 48.5 25.9s37.5-9.6 48.4-25.8c.7-.9 1-2 1-3.3.1-3.1-2.4-5.6-5.5-5.6zm0 11.3z"/></g><g><path class="st3" d="M61.3 94.1v14.4h-1.7c-.3 0-.5 0-.6-.1-.2-.1-.3-.2-.5-.4l-6.8-8.6c0 .3 0 .5.1.7v8.4h-2.9V94.1h2.2c.1 0 .2 0 .3.1.1 0 .2.1.2.2.1.1.2.2.2.3l6.8 8.6c0-.3-.1-.5-.1-.8V94.2h2.8zM74.8 104.7h.2c.1 0 .2.1.2.2l1.3 1.4c-.6.8-1.3 1.3-2.2 1.7-.9.4-1.9.6-3.1.6-1.1 0-2.1-.2-2.9-.6-.9-.4-1.6-.9-2.2-1.5-.6-.7-1.1-1.4-1.4-2.3-.3-.9-.5-1.9-.5-2.9 0-1.1.2-2.1.5-3 .3-.9.8-1.7 1.5-2.3.6-.7 1.4-1.2 2.3-1.5.9-.4 1.9-.5 2.9-.5.5 0 1 0 1.5.1s.9.2 1.3.4.8.4 1.1.6c.3.2.7.5.9.8l-1.1 1.5-.3.3c-.1.1-.2.1-.4.1-.1 0-.2 0-.3-.1-.1-.1-.2-.1-.3-.2s-.2-.2-.4-.2c-.1-.1-.3-.2-.5-.2-.2-.1-.4-.1-.7-.2-.3-.1-.6-.1-.9-.1-.6 0-1.1.1-1.5.3-.5.2-.9.5-1.2.9-.3.4-.6.9-.8 1.4-.2.6-.3 1.2-.3 2 0 .7.1 1.4.3 2 .2.6.5 1.1.8 1.4.3.4.7.7 1.2.9.5.2 1 .3 1.5.3h.8c.2 0 .5-.1.7-.1l.6-.3c.2-.1.4-.3.6-.4.1-.1.2-.1.3-.2.3-.3.4-.3.5-.3z"/></g><g><path class="st1" d="M12.6 85.2h99.7v5.6H12.6z"/></g></svg>