<?xml version="1.0" encoding="utf-8"?>
<!-- Generator: Adobe Illustrator 25.0.1, SVG Export Plug-In . SVG Version: 6.00 Build 0)  -->
<svg version="1.1" id="Layer_1" xmlns="http://www.w3.org/2000/svg" xmlns:xlink="http://www.w3.org/1999/xlink" x="0px" y="0px"
	 viewBox="0 0 124 124" style="enable-background:new 0 0 124 124;" xml:space="preserve">
<style type="text/css">
	.st0{fill:#FED069;}
	.st1{fill:#F7FBFC;}
	.st2{fill:#FFB946;}
	.st3{fill:#515A78;}
	.st4{fill:#91B7CF;}
	.st5{fill:#515979;}
	.st6{fill:#7DDF96;}
	.st7{fill:#00C853;}
	.st8{fill:none;}
	.st9{fill:#2196F3;}
</style>
<g>
	<circle class="st0" cx="62" cy="62.48" r="55.95"/>
	<g>
		<path class="st1" d="M105.46,39.68c-0.43,0-0.83,0.09-1.21,0.22c-0.71-2.3-2.83-3.97-5.36-3.97c-2.53,0-4.65,1.68-5.36,3.97
			c-0.38-0.13-0.79-0.22-1.21-0.22c-2.08,0-3.76,1.68-3.76,3.76c0,2.08,1.68,3.76,3.76,3.76h13.14c2.08,0,3.76-1.68,3.76-3.76
			C109.21,41.36,107.52,39.68,105.46,39.68z"/>
		<path class="st1" d="M29.58,46.32c-0.43,0-0.83,0.09-1.21,0.22c-0.71-2.3-2.83-3.97-5.36-3.97s-4.65,1.68-5.36,3.97
			c-0.38-0.13-0.79-0.22-1.21-0.22c-2.08,0-3.76,1.68-3.76,3.76c0,2.08,1.68,3.76,3.76,3.76h13.14c2.08,0,3.76-1.68,3.76-3.76
			C33.34,48,31.65,46.32,29.58,46.32z"/>
		<path class="st1" d="M61.83,21.66c-0.43,0-0.83,0.09-1.21,0.22c-0.71-2.3-2.83-3.97-5.36-3.97c-2.53,0-4.65,1.68-5.36,3.97
			c-0.38-0.13-0.79-0.22-1.21-0.22c-2.08,0-3.76,1.68-3.76,3.76s1.68,3.76,3.76,3.76h13.14c2.08,0,3.76-1.68,3.76-3.76
			S63.9,21.66,61.83,21.66z"/>
	</g>
	<path class="st2" d="M32.4,33.36c-1.61,0-2.92-1.31-2.92-2.92c0-0.37-0.3-0.67-0.67-0.67c-0.37,0-0.67,0.3-0.67,0.67
		c0,1.61-1.31,2.92-2.92,2.92c-0.37,0-0.67,0.3-0.67,0.67c0,0.37,0.3,0.67,0.67,0.67c1.61,0,2.92,1.31,2.92,2.92
		c0,0.37,0.3,0.67,0.67,0.67c0.37,0,0.67-0.3,0.67-0.67c0-1.61,1.31-2.92,2.92-2.92c0.37,0,0.67-0.3,0.67-0.67
		C33.07,33.66,32.77,33.36,32.4,33.36z"/>
	<path class="st2" d="M79.82,19.13c-1.61,0-2.92-1.31-2.92-2.92c0-0.37-0.3-0.67-0.67-0.67s-0.67,0.3-0.67,0.67
		c0,1.61-1.31,2.92-2.92,2.92c-0.37,0-0.67,0.3-0.67,0.67s0.3,0.67,0.67,0.67c1.61,0,2.92,1.31,2.92,2.92c0,0.37,0.3,0.67,0.67,0.67
		s0.67-0.3,0.67-0.67c0-1.61,1.31-2.92,2.92-2.92c0.37,0,0.67-0.3,0.67-0.67S80.19,19.13,79.82,19.13z"/>
	<path class="st3" d="M11.74,86.19h100.53v5.69H11.74V86.19z"/>
	<path class="st4" d="M62,71.98c-0.28,0-0.55,0-0.83-0.02c-12.09-0.43-21.94-10.84-21.94-23.22v-7.11h-0.95
		c-2.1,0-3.79-1.7-3.79-3.79v-5.69c0-2.1,1.7-3.79,3.79-3.79h10.43c2.1,0,3.79,1.7,3.79,3.79v17.07c0,2.53,0.99,4.91,2.78,6.71
		c1.79,1.79,4.17,2.78,6.71,2.78c0.15,0,0.3,0,0.46-0.01c4.97-0.24,9.02-4.64,9.02-9.83V32.15c0-2.1,1.7-3.79,3.79-3.79h10.43
		c2.1,0,3.79,1.7,3.79,3.79v5.69c0,2.1-1.7,3.79-3.79,3.79h-0.95v7.59c0,6.08-2.37,11.8-6.67,16.09C73.8,69.61,68.08,71.98,62,71.98
		z"/>
	<path class="st5" d="M85.71,31.2c0.52,0,0.95,0.43,0.95,0.95v5.69c0,0.52-0.43,0.95-0.95,0.95h-3.79v10.43
		c0,11-8.91,19.92-19.92,19.92c-0.24,0-0.48,0-0.73-0.01c-10.79-0.39-19.19-9.59-19.19-20.38v-9.96h-3.79
		c-0.52,0-0.95-0.43-0.95-0.95v-5.69c0-0.52,0.43-0.95,0.95-0.95h10.43c0.52,0,0.95,0.43,0.95,0.95v17.07
		c0,6.81,5.52,12.33,12.33,12.33c0.2,0,0.4,0,0.6-0.01c6.63-0.31,11.73-6.03,11.73-12.67V32.15c0-0.52,0.43-0.95,0.95-0.95H85.71z
		 M85.71,25.51H75.28c-3.66,0-6.64,2.98-6.64,6.64v16.72c0,3.68-2.83,6.82-6.31,6.98c-0.11,0.01-0.23,0.01-0.33,0.01
		c-3.66,0-6.64-2.98-6.64-6.64V32.15c0-3.66-2.98-6.64-6.64-6.64H38.29c-3.66,0-6.64,2.98-6.64,6.64v5.69c0,3.01,2,5.55,4.74,6.36
		v4.54c0,6.7,2.51,13.09,7.07,17.98c4.65,4.98,10.9,7.85,17.6,8.09c0.31,0.01,0.62,0.02,0.93,0.02c14.12,0,25.61-11.48,25.61-25.61
		v-5.02c2.74-0.82,4.74-3.36,4.74-6.36v-5.69C92.35,28.49,89.37,25.51,85.71,25.51L85.71,25.51z"/>
	<path class="st3" d="M45.88,39.26c-1.04,0-1.9-0.85-1.9-1.9v-0.47c0-1.04,0.85-1.9,1.9-1.9s1.9,0.85,1.9,1.9v0.47
		C47.77,38.41,46.92,39.26,45.88,39.26z"/>
	<path class="st3" d="M65.66,66.82c-0.86,0-1.64-0.59-1.85-1.47c-0.24-1.02,0.4-2.04,1.42-2.28c0.27-0.06,0.53-0.13,0.79-0.21
		c1.01-0.29,2.06,0.28,2.36,1.28c0.3,1.01-0.28,2.06-1.28,2.36c-0.33,0.09-0.67,0.19-1.01,0.27C65.95,66.8,65.8,66.82,65.66,66.82z
		 M58.3,66.81c-0.14,0-0.29-0.02-0.44-0.05c-0.34-0.08-0.67-0.17-1.01-0.27c-1.01-0.29-1.57-1.36-1.28-2.36
		c0.29-1.01,1.36-1.57,2.36-1.28c0.27,0.08,0.52,0.15,0.8,0.21c1.02,0.24,1.65,1.26,1.41,2.29C59.94,66.23,59.16,66.81,58.3,66.81z
		 M72.96,62.94c-0.51,0-1.01-0.2-1.39-0.61c-0.71-0.77-0.66-1.96,0.09-2.68c0.2-0.19,0.4-0.38,0.59-0.57
		c0.73-0.76,1.93-0.78,2.68-0.06c0.76,0.72,0.78,1.93,0.06,2.68c-0.24,0.25-0.48,0.49-0.74,0.73
		C73.89,62.76,73.43,62.94,72.96,62.94z M51.01,62.92c-0.46,0-0.93-0.17-1.29-0.51c-0.26-0.24-0.5-0.47-0.74-0.73
		c-0.72-0.76-0.7-1.95,0.06-2.68c0.76-0.72,1.95-0.69,2.68,0.06c0.19,0.2,0.38,0.39,0.59,0.58c0.77,0.71,0.81,1.92,0.09,2.68
		C52.02,62.71,51.52,62.92,51.01,62.92z M77.38,55.95c-0.19,0-0.38-0.03-0.57-0.09c-1-0.31-1.56-1.38-1.24-2.38
		c0.09-0.26,0.15-0.52,0.22-0.79c0.26-1.01,1.28-1.64,2.3-1.38c1.01,0.26,1.63,1.28,1.38,2.3c-0.09,0.34-0.18,0.67-0.28,1.01
		C78.94,55.43,78.19,55.95,77.38,55.95z M46.61,55.92c-0.81,0-1.56-0.52-1.81-1.34c-0.1-0.33-0.2-0.66-0.28-1
		c-0.26-1.01,0.37-2.05,1.38-2.3c1.01-0.26,2.05,0.37,2.3,1.38c0.07,0.27,0.14,0.53,0.22,0.79c0.31,1-0.25,2.07-1.24,2.37
		C46.98,55.89,46.79,55.92,46.61,55.92z M78.12,47.67c-1.04,0-1.9-0.85-1.9-1.9v-0.93c0-1.04,0.85-1.9,1.9-1.9
		c1.04,0,1.9,0.85,1.9,1.9v0.93C80.02,46.81,79.17,47.67,78.12,47.67z M45.88,47.63c-1.04,0-1.9-0.85-1.9-1.9V44.8
		c0-1.04,0.85-1.9,1.9-1.9s1.9,0.85,1.9,1.9v0.93C47.77,46.77,46.92,47.63,45.88,47.63z"/>
	<path class="st3" d="M78.12,39.26c-1.04,0-1.9-0.85-1.9-1.9v-0.47c0-1.04,0.85-1.9,1.9-1.9c1.04,0,1.9,0.85,1.9,1.9v0.47
		C80.02,38.41,79.17,39.26,78.12,39.26z"/>
	<circle class="st6" cx="77.17" cy="86.21" r="7.59"/>
	<path class="st3" d="M77.17,81.47c2.62,0,4.74,2.12,4.74,4.74c0,2.62-2.12,4.74-4.74,4.74c-2.62,0-4.74-2.12-4.74-4.74
		C72.43,83.59,74.56,81.47,77.17,81.47 M77.17,75.78c-5.76,0-10.43,4.68-10.43,10.43c0,5.76,4.68,10.43,10.43,10.43
		c5.76,0,10.43-4.68,10.43-10.43C87.61,80.45,82.93,75.78,77.17,75.78z"/>
	<circle class="st6" cx="46.83" cy="86.21" r="7.59"/>
	<path class="st3" d="M46.83,81.47c2.62,0,4.74,2.12,4.74,4.74c0,2.62-2.12,4.74-4.74,4.74s-4.74-2.12-4.74-4.74
		C42.08,83.59,44.21,81.47,46.83,81.47 M46.83,75.78c-5.76,0-10.43,4.68-10.43,10.43c0,5.76,4.68,10.43,10.43,10.43
		s10.43-4.68,10.43-10.43C57.26,80.45,52.58,75.78,46.83,75.78z"/>
	<path class="st7" d="M25.96,90.95c-1.57,0-2.85-1.27-2.85-2.85v-7.59h-0.95c-4.18,0-7.59-3.4-7.59-7.59v-4.74
		c0-3.14,2.55-5.69,5.69-5.69c1.03,0,2.01,0.28,2.85,0.77v-1.72c0-3.14,2.55-5.69,5.69-5.69s5.69,2.55,5.69,5.69v6.46
		c0.83-0.48,1.81-0.77,2.85-0.77c3.14,0,5.69,2.55,5.69,5.69v2.85c0,4.18-3.4,7.59-7.59,7.59H34.5v4.74c0,1.57-1.27,2.85-2.85,2.85
		H25.96z"/>
	<path class="st3" d="M28.81,58.71c1.57,0,2.85,1.27,2.85,2.85v13.28h2.85v-1.9c0-1.57,1.27-2.85,2.85-2.85
		c1.57,0,2.85,1.27,2.85,2.85v2.85c0,2.62-2.12,4.74-4.74,4.74h-3.79v7.59h-5.69V77.67h-3.79c-2.62,0-4.74-2.12-4.74-4.74v-4.74
		c0-1.57,1.27-2.85,2.85-2.85s2.85,1.27,2.85,2.85v3.79h2.85V61.55C25.96,59.98,27.23,58.71,28.81,58.71 M28.81,53.02
		c-4.06,0-7.46,2.85-8.33,6.64c-0.07,0-0.14,0-0.21,0c-4.7,0-8.54,3.83-8.54,8.54v4.74c0,5.1,3.69,9.36,8.54,10.26v4.91
		c0,3.14,2.55,5.69,5.69,5.69h5.69c3.14,0,5.69-2.55,5.69-5.69v-2.07c4.85-0.89,8.54-5.16,8.54-10.26v-2.85
		c0-4.7-3.83-8.54-8.54-8.54v-2.85C37.34,56.85,33.51,53.02,28.81,53.02z"/>
	<path class="st7" d="M92.35,90.95c-1.57,0-2.85-1.27-2.85-2.85v-4.74h-0.95c-4.18,0-7.59-3.4-7.59-7.59v-2.85
		c0-3.14,2.55-5.69,5.69-5.69c1.03,0,2.01,0.28,2.85,0.77v-6.46c0-3.14,2.55-5.69,5.69-5.69s5.69,2.55,5.69,5.69v1.72
		c0.83-0.48,1.81-0.77,2.85-0.77c3.14,0,5.69,2.55,5.69,5.69v4.74c0,4.18-3.4,7.59-7.59,7.59h-0.95v7.59c0,1.57-1.27,2.85-2.85,2.85
		H92.35z"/>
	<path class="st3" d="M95.19,58.71c1.57,0,2.85,1.27,2.85,2.85v10.43h2.85v-3.79c0-1.57,1.27-2.85,2.85-2.85s2.85,1.27,2.85,2.85
		v4.74c0,2.62-2.12,4.74-4.74,4.74h-3.79v10.43h-5.69v-7.59h-3.79c-2.62,0-4.74-2.12-4.74-4.74v-2.85c0-1.57,1.27-2.85,2.85-2.85
		s2.85,1.27,2.85,2.85v1.9h2.85V61.55C92.35,59.98,93.62,58.71,95.19,58.71 M95.19,53.02c-4.7,0-8.54,3.83-8.54,8.54v2.85
		c-4.7,0-8.54,3.83-8.54,8.54v2.85c0,5.1,3.69,9.36,8.54,10.26v2.07c0,3.14,2.55,5.69,5.69,5.69h5.69c3.14,0,5.69-2.55,5.69-5.69
		v-4.91c4.85-0.89,8.54-5.16,8.54-10.26v-4.74c0-4.7-3.83-8.54-8.54-8.54c-0.07,0-0.14,0-0.21,0
		C102.66,55.86,99.25,53.02,95.19,53.02z"/>
	<circle class="st8" cx="62" cy="62.48" r="53.11"/>
	<path class="st6" d="M107.52,79.57c-3.67,0-6.64,2.97-6.64,6.64c0,3.04,2.06,5.6,4.86,6.39c2.45-3.55,4.48-7.41,6.01-11.5
		C110.6,80.14,109.13,79.57,107.52,79.57z"/>
	<path class="st3" d="M98.04,86.21c0,3.97,2.47,7.38,5.94,8.79c3.2-0.38,4.36-1.93,3.46-5.01c-2.06-0.05-3.71-1.72-3.71-3.78
		c0-2.1,1.7-3.79,3.79-3.79c1.25,0,2.35,0.62,3.04,1.56c2.77-0.7,3.48-2.95,2.15-5.68c-1.5-0.99-3.28-1.56-5.2-1.56
		C102.3,76.72,98.04,80.98,98.04,86.21z"/>
	<circle class="st8" cx="62" cy="62.48" r="53.11"/>
	<circle class="st8" cx="62" cy="62.48" r="53.11"/>
	<path class="st3" d="M62,9.37c29.33,0,53.11,23.78,53.11,53.11S91.33,115.59,62,115.59S8.89,91.81,8.89,62.48S32.67,9.37,62,9.37
		 M62,3.68c-32.43,0-58.8,26.37-58.8,58.8s26.37,58.8,58.8,58.8s58.8-26.37,58.8-58.8S94.43,3.68,62,3.68z"/>
	<path class="st6" d="M23.12,86.21c0-3.67-2.97-6.64-6.64-6.64c-1.6,0-3.08,0.57-4.23,1.52c1.54,4.1,3.57,7.96,6.01,11.5
		C21.06,91.81,23.12,89.25,23.12,86.21z"/>
	<path class="st3" d="M16.48,82.42c2.1,0,3.79,1.7,3.79,3.79c0,2.07-1.65,3.74-3.71,3.78c-0.98,2.07,0.41,5.17,3.46,5.01
		c3.47-1.41,5.94-4.82,5.94-8.79c0-5.23-4.26-9.48-9.48-9.48c-1.92,0-3.7,0.58-5.2,1.56c-1.49,2.04-1.56,4.2,2.15,5.68
		C14.13,83.03,15.23,82.42,16.48,82.42z"/>
	<path class="st9" d="M62,118.43c-18.71,0-36.1-9.29-46.53-24.87l-2.97-4.43h98.97l-2.96,4.43C98.11,109.14,80.71,118.43,62,118.43z
		"/>
	<path class="st3" d="M106.16,91.98c-9.52,14.24-25.75,23.61-44.16,23.61s-34.64-9.37-44.16-23.61H106.16z M113.02,86.29h-6.87
		H17.84H9.08l4.03,8.86c10.95,16.36,29.23,26.13,48.89,26.13s37.94-9.77,48.89-26.13l4.03-8.86H113.02z"/>
	<path class="st1" d="M59.71,97.82h-4.08v11.84h-3.37V97.82h-4.08v-2.66h11.53L59.71,97.82L59.71,97.82z"/>
	<path class="st1" d="M75.22,109.66h-3.37c-0.22,0-0.4-0.06-0.53-0.16s-0.25-0.24-0.32-0.38l-2.91-5.07
		c-0.06,0.14-0.11,0.28-0.18,0.38l-2.71,4.7c-0.09,0.13-0.2,0.26-0.33,0.37c-0.12,0.11-0.28,0.17-0.48,0.17h-3.14l4.67-7.47
		l-4.5-7.04h3.37c0.22,0,0.38,0.03,0.48,0.09s0.2,0.15,0.28,0.28l2.88,4.89c0.04-0.09,0.08-0.17,0.11-0.25s0.09-0.16,0.14-0.25
		l2.53-4.34c0.09-0.14,0.19-0.26,0.29-0.32c0.1-0.07,0.23-0.1,0.38-0.1h3.22l-4.55,6.9L75.22,109.66z"/>
</g>
</svg>
